<svg width="24" height="24" viewBox="0 0 24 24" fill="none" xmlns="http://www.w3.org/2000/svg">
<g clip-path="url(#clip0_6761_52879)">
<path d="M11.5297 14.7208C11.6701 14.8614 11.749 15.0521 11.749 15.2508C11.749 15.4496 11.6701 15.6402 11.5297 15.7808C11.3891 15.9213 11.1984 16.0002 10.9997 16.0002C10.8009 16.0002 10.6103 15.9213 10.4697 15.7808L7.21968 12.5308C7.07923 12.3902 7.00034 12.1996 7.00034 12.0008C7.00034 11.8021 7.07923 11.6114 7.21968 11.4708L10.4697 8.22082C10.6119 8.08834 10.7999 8.01622 10.9942 8.01965C11.1885 8.02308 11.3739 8.10179 11.5113 8.2392C11.6487 8.37661 11.7274 8.562 11.7309 8.7563C11.7343 8.9506 11.6622 9.13865 11.5297 9.28082L8.80968 12.0008L11.5297 14.7208ZM11.4697 12.5308L15.7197 16.7808C15.8603 16.9213 16.0509 17.0002 16.2497 17.0002C16.4484 17.0002 16.6391 16.9213 16.7797 16.7808C16.9201 16.6402 16.999 16.4496 16.999 16.2508C16.999 16.0521 16.9201 15.8614 16.7797 15.7208L13.0597 12.0008L16.7797 8.28082C16.9122 8.13865 16.9843 7.9506 16.9809 7.7563C16.9774 7.562 16.8987 7.37661 16.7613 7.2392C16.6239 7.10179 16.4385 7.02308 16.2442 7.01965C16.0499 7.01622 15.8619 7.08834 15.7197 7.22082L11.4697 11.4708C11.3292 11.6114 11.2503 11.8021 11.2503 12.0008C11.2503 12.1996 11.3292 12.3902 11.4697 12.5308Z" fill="#6E7C87"/>
</g>
<defs>
<clipPath id="clip0_6761_52879">
<rect width="24" height="24" fill="white" transform="matrix(-1 0 0 1 24 0)"/>
</clipPath>
</defs>
</svg>
