<svg width="142" height="142" viewBox="0 0 142 142" fill="none" xmlns="http://www.w3.org/2000/svg">
<path d="M46.5758 23.4016C46.601 23.2082 46.6648 23.0218 46.7635 22.8535C46.8621 22.6853 46.9936 22.5386 47.15 22.4221C47.3065 22.3057 47.4848 22.2218 47.6743 22.1756C47.8638 22.1294 48.0606 22.1218 48.2531 22.1532C52.4096 22.7626 56.924 23.5258 61.6721 24.4163C62.0329 24.4857 62.355 24.6868 62.5756 24.9806C62.7962 25.2744 62.8996 25.6398 62.8657 26.0056C62.8317 26.3714 62.6628 26.7115 62.3919 26.9596C62.1209 27.2078 61.7674 27.3462 61.4 27.348C61.3086 27.3478 61.2175 27.3389 61.1278 27.3214C56.7057 26.4852 52.2673 25.7376 47.8153 25.079C47.429 25.0198 47.0818 24.8102 46.8496 24.4959C46.6173 24.1816 46.5189 23.7882 46.5758 23.4016ZM40.2331 23.6146C40.5256 23.6146 40.8116 23.5278 41.0549 23.3653C41.2981 23.2028 41.4877 22.9718 41.5997 22.7015C41.7116 22.4312 41.7409 22.1338 41.6838 21.8468C41.6268 21.5599 41.4859 21.2964 41.279 21.0895C41.0722 20.8826 40.8086 20.7417 40.5217 20.6847C40.2347 20.6276 39.9373 20.6569 39.667 20.7688C39.3968 20.8808 39.1657 21.0704 39.0032 21.3136C38.8407 21.5569 38.7539 21.8429 38.7539 22.1354C38.7539 22.5277 38.9098 22.9039 39.1872 23.1813C39.4646 23.4587 39.8408 23.6146 40.2331 23.6146ZM113.245 73.1252C112.952 73.1252 112.666 73.212 112.423 73.3745C112.18 73.5371 111.99 73.7681 111.878 74.0384C111.766 74.3086 111.737 74.6061 111.794 74.893C111.851 75.1799 111.992 75.4435 112.199 75.6503C112.406 75.8572 112.669 75.9981 112.956 76.0552C113.243 76.1122 113.541 76.0829 113.811 75.971C114.081 75.859 114.312 75.6694 114.475 75.4262C114.637 75.1829 114.724 74.897 114.724 74.6044C114.724 74.2121 114.568 73.8359 114.291 73.5585C114.013 73.2811 113.637 73.1252 113.245 73.1252ZM113.245 82.7162C112.952 82.7162 112.666 82.8029 112.423 82.9655C112.18 83.128 111.99 83.359 111.878 83.6293C111.766 83.8996 111.737 84.197 111.794 84.4839C111.851 84.7708 111.992 85.0344 112.199 85.2413C112.406 85.4481 112.669 85.589 112.956 85.6461C113.243 85.7031 113.541 85.6739 113.811 85.5619C114.081 85.45 114.312 85.2604 114.475 85.0171C114.637 84.7739 114.724 84.4879 114.724 84.1953C114.724 83.803 114.568 83.4268 114.291 83.1494C114.013 82.872 113.637 82.7162 113.245 82.7162ZM111.766 92.3071C111.473 92.3071 111.187 92.3938 110.944 92.5564C110.701 92.7189 110.511 92.9499 110.399 93.2202C110.287 93.4905 110.258 93.7879 110.315 94.0748C110.372 94.3617 110.513 94.6253 110.72 94.8322C110.927 95.039 111.19 95.1799 111.477 95.237C111.764 95.2941 112.061 95.2648 112.332 95.1528C112.602 95.0409 112.833 94.8513 112.995 94.608C113.158 94.3648 113.245 94.0788 113.245 93.7862C113.246 93.5915 113.208 93.3985 113.134 93.2184C113.06 93.0382 112.951 92.8745 112.814 92.7365C112.676 92.5985 112.513 92.489 112.333 92.4143C112.153 92.3396 111.96 92.3012 111.766 92.3012V92.3071ZM96.4177 55.4551L77.9785 65.4277C76.6961 66.1128 75.2276 66.3677 73.7894 66.1546C72.3512 65.9416 71.0195 65.2719 69.991 64.2443L49.7412 43.9088C49.4642 43.6306 49.0881 43.4739 48.6956 43.4731C48.3031 43.4722 47.9263 43.6273 47.6482 43.9043C47.37 44.1813 47.2133 44.5574 47.2125 44.9499C47.2116 45.3424 47.3667 45.7192 47.6437 45.9973L67.8935 66.3329C69.373 67.8111 71.288 68.775 73.3566 69.0829C75.4251 69.3907 77.5379 69.0261 79.3837 68.0428L97.8259 58.0703C97.9969 57.9778 98.1479 57.8526 98.2705 57.7018C98.393 57.5509 98.4846 57.3774 98.5401 57.1912C98.5956 57.0049 98.6139 56.8096 98.5939 56.6163C98.5739 56.423 98.516 56.2355 98.4235 56.0645C98.331 55.8936 98.2058 55.7426 98.055 55.62C97.9041 55.4975 97.7306 55.4058 97.5444 55.3503C97.3581 55.2949 97.1628 55.2766 96.9695 55.2966C96.7762 55.3166 96.5887 55.3745 96.4177 55.467V55.4551ZM131.941 54.8102L125.235 57.733L129.125 59.863C129.408 60.0177 129.632 60.2604 129.764 60.5543C129.896 60.8481 129.929 61.1771 129.857 61.4911C129.785 61.8052 129.612 62.0871 129.365 62.2941C129.119 62.5011 128.811 62.6218 128.489 62.638C128.229 62.638 124.14 62.848 120.428 62.848C118.768 62.878 117.108 62.8029 115.458 62.6232C115.07 62.5651 114.721 62.3553 114.487 62.0399C114.254 61.7245 114.156 61.3293 114.214 60.9414C114.272 60.5534 114.481 60.2043 114.797 59.9711C115.112 59.7378 115.507 59.6393 115.895 59.6974C118.245 59.907 120.606 59.9623 122.963 59.863L118.898 57.6384C118.563 57.4454 118.317 57.1288 118.212 56.7565C118.108 56.3841 118.153 55.9856 118.339 55.6464C118.524 55.3071 118.836 55.0541 119.206 54.9415C119.576 54.8289 119.975 54.8656 120.318 55.0439L121.951 55.9314L126.034 54.1564C122.25 53.1941 118.518 52.0368 114.854 50.6893C112.273 54.1652 109.515 57.5066 106.591 60.7002C106.612 61.36 106.618 62.0108 106.63 62.6646L117.111 63.9367C117.504 63.9598 117.871 64.1379 118.132 64.4316C118.393 64.7254 118.526 65.1108 118.503 65.5031C118.48 65.8954 118.302 66.2624 118.008 66.5235C117.714 66.7845 117.329 66.9181 116.937 66.895H116.756L106.651 65.6673C106.585 75.2527 105.78 84.8187 104.243 94.2803C104.054 95.379 103.44 96.3591 102.533 97.0077C101.626 97.6563 100.5 97.921 99.3997 97.7445C78.1963 94.4621 57.3515 89.1785 37.1446 81.9647C36.1114 81.5739 35.2723 80.794 34.8073 79.792C34.3422 78.7899 34.2881 77.6456 34.6566 76.6042C36.4795 69.4199 37.3439 62.026 37.2274 54.615L24.3646 51.5945C24.1754 51.55 23.9968 51.4687 23.839 51.3552C23.6813 51.2417 23.5474 51.0982 23.4451 50.933C23.3427 50.7678 23.274 50.584 23.2427 50.3922C23.2113 50.2004 23.2181 50.0043 23.2626 49.8151C23.3071 49.6259 23.3884 49.4473 23.5019 49.2895C23.6154 49.1317 23.7589 48.9979 23.9241 48.8955C24.0893 48.7932 24.2731 48.7244 24.4649 48.6931C24.6567 48.6618 24.8529 48.6686 25.042 48.7131L37.2659 51.5856V50.5946C33.9692 45.6856 31.0782 40.5161 28.6216 35.1373C26.5508 34.8267 21.066 33.9924 16.525 33.238L22.9978 38.1193C23.2297 38.2947 23.4048 38.5346 23.5011 38.809C23.5974 39.0833 23.6108 39.38 23.5394 39.6619C23.4681 39.9437 23.3152 40.1983 23.1 40.3939C22.8848 40.5894 22.6167 40.7171 22.3293 40.7611L19.6105 41.1782L26.5538 44.7489C26.7322 44.8343 26.8918 44.9545 27.023 45.1026C27.1541 45.2507 27.2543 45.4236 27.3174 45.6111C27.3806 45.7986 27.4055 45.9968 27.3907 46.1941C27.3759 46.3914 27.3216 46.5837 27.2312 46.7596C27.1408 46.9356 27.0159 47.0916 26.8641 47.2185C26.7123 47.3453 26.5366 47.4404 26.3474 47.4982C26.1581 47.5559 25.9593 47.5751 25.7625 47.5546C25.5657 47.5341 25.3751 47.4744 25.2018 47.3789L14.1998 41.7137C13.9217 41.5708 13.696 41.3435 13.5552 41.0644C13.4143 40.7853 13.3655 40.4687 13.4158 40.1601C13.4661 39.8516 13.6129 39.5669 13.835 39.3469C14.0572 39.1269 14.3433 38.983 14.6524 38.9358L18.4154 38.3619L9.76226 31.8328C9.49009 31.6279 9.29701 31.3353 9.21565 31.0044C9.13429 30.6736 9.16963 30.3248 9.3157 30.017C9.46178 29.7092 9.70962 29.4613 10.0174 29.3151C10.3251 29.1689 10.6739 29.1335 11.0048 29.2147C14.1169 29.975 29.7251 32.3091 29.8848 32.3328C30.1352 32.3706 30.3717 32.4721 30.5717 32.6275C30.7716 32.7829 30.9283 32.987 31.0268 33.2203C32.8164 37.2966 34.8925 41.241 37.2393 45.024C37.1594 40.557 36.9908 36.788 36.8754 34.6048C36.842 33.9876 36.9447 33.3706 37.1763 32.7975C37.4079 32.2244 37.7627 31.7092 38.2155 31.2885C38.664 30.8688 39.1996 30.5533 39.7841 30.3646C40.3687 30.1759 40.9877 30.1186 41.5969 30.1969C62.0668 33.1662 82.3306 37.4148 102.269 42.9177C103.051 43.1332 103.754 43.5692 104.294 44.1736C104.834 44.7779 105.189 45.525 105.316 46.3257C105.828 49.688 106.185 53.0719 106.387 56.4669C108.771 53.8348 110.978 51.0479 112.993 48.1244C113.172 47.8321 113.447 47.611 113.771 47.4987C114.094 47.3865 114.447 47.3902 114.768 47.509C120.079 49.6417 125.623 51.1411 131.285 51.9761C131.633 51.9438 131.982 52.0448 132.259 52.2589C132.536 52.473 132.722 52.7843 132.779 53.1299C132.855 53.4636 132.813 53.8135 132.661 54.1199C132.508 54.4263 132.254 54.6703 131.941 54.8102ZM102.394 46.7813C102.356 46.5414 102.25 46.3175 102.087 46.1369C101.925 45.9562 101.714 45.8266 101.479 45.7636C81.6742 40.302 61.5469 36.0841 41.2153 33.1345C41.1621 33.1302 41.1087 33.1302 41.0555 33.1345C40.8859 33.1366 40.7184 33.1731 40.5633 33.2418C40.4082 33.3105 40.2686 33.4099 40.153 33.534C40.0374 33.6582 39.9482 33.8045 39.8908 33.9642C39.8333 34.1238 39.8089 34.2934 39.8189 34.4628C40.313 43.8644 41.0733 66.8802 37.4523 77.5657C37.391 77.7201 37.3608 77.8851 37.3635 78.0511C37.3662 78.2172 37.4017 78.3811 37.468 78.5334C37.5342 78.6857 37.6299 78.8234 37.7496 78.9386C37.8692 79.0538 38.0105 79.1442 38.1652 79.2046C58.1886 86.3525 78.8443 91.5865 99.8553 94.8365C100.189 94.8924 100.532 94.8145 100.809 94.6195C101.086 94.4246 101.275 94.1284 101.335 93.7951C103.99 78.2606 104.348 62.4199 102.397 46.7813H102.394ZM60.4563 108.276C53.0026 113.223 44.6548 116.667 35.8814 118.414C35.5115 118.467 35.1753 118.658 34.9403 118.948C34.7052 119.238 34.5887 119.607 34.6142 119.98C34.6397 120.352 34.8052 120.702 35.0776 120.957C35.35 121.213 35.709 121.356 36.0825 121.358C36.1508 121.357 36.219 121.352 36.2867 121.343C45.5221 119.555 54.3069 115.939 62.1248 110.708C62.2911 110.601 62.4343 110.462 62.546 110.299C62.6577 110.136 62.7356 109.952 62.775 109.758C62.8144 109.565 62.8146 109.365 62.7756 109.171C62.7366 108.977 62.6591 108.793 62.5478 108.63C62.4365 108.467 62.2936 108.327 62.1274 108.22C61.9613 108.113 61.7755 108.04 61.5808 108.006C61.386 107.972 61.1865 107.977 60.9939 108.022C60.8012 108.066 60.6194 108.149 60.4592 108.264L60.4563 108.276ZM44.8599 100.747C45.0702 100.427 45.1478 100.037 45.0764 99.6603C45.005 99.2837 44.7902 98.9494 44.4772 98.7281C44.1641 98.5068 43.7774 98.4156 43.3985 98.4738C43.0196 98.5321 42.678 98.7351 42.4459 99.0402C37.4792 105.367 31.1953 110.538 24.0303 114.193C23.8515 114.278 23.6915 114.398 23.5598 114.545C23.4282 114.693 23.3275 114.866 23.2639 115.053C23.2002 115.241 23.1747 115.439 23.1891 115.636C23.2034 115.834 23.2572 116.026 23.3473 116.203C23.4374 116.379 23.562 116.535 23.7136 116.662C23.8652 116.79 24.0408 116.885 24.2301 116.943C24.4193 117.001 24.6182 117.021 24.8151 117.001C25.012 116.981 25.2028 116.921 25.3763 116.826C32.9879 112.98 39.6445 107.483 44.8599 100.735V100.747ZM33.1331 89.6032C33.2535 89.2297 33.2207 88.8237 33.0417 88.4744C32.8628 88.1252 32.5525 87.8613 32.179 87.7409C31.8056 87.6205 31.3995 87.6533 31.0503 87.8322C30.7011 88.0112 30.4372 88.3215 30.3168 88.695C30.3168 88.7423 28.6335 93.5289 20.4862 100.786C20.1932 101.047 20.0158 101.413 19.993 101.805C19.9703 102.197 20.104 102.581 20.3649 102.874C20.6258 103.167 20.9924 103.345 21.3841 103.367C21.7758 103.39 22.1605 103.256 22.4535 102.996C31.3137 95.1116 33.071 89.8221 33.1331 89.6032Z" fill="var(--primary-color)"/>
</svg>
