<svg width="79" height="20" viewBox="0 0 74 15" fill="none" xmlns="http://www.w3.org/2000/svg">
<path fill-rule="evenodd" clip-rule="evenodd" d="M11.9601 12.4495L11.4941 12.1812L9.65316 11.1281L7.06658 9.6509L4.48292 11.1281L3.68772 11.584L2.6391 12.1812L2.17305 12.4495V5.28275L7.06658 2.48413L11.9601 5.28275V12.4495ZM14.1331 13.6901V5.06924C14.1382 4.75607 14.0575 4.44737 13.8995 4.17605C13.7415 3.90473 13.5122 3.68095 13.2359 3.52856L7.06658 0L0.900156 3.52856C0.624389 3.68177 0.395317 3.90565 0.236957 4.17672C0.0785979 4.4478 -0.00321495 4.75608 9.66888e-05 5.06924V15.0029H2.05654L3.23623 14.3278L4.04599 13.8661L5.99466 12.7525L7.06658 12.1379L7.28795 12.2649L10.0901 13.8661L10.8969 14.3278L12.0766 15.0029H14.1331V13.6901Z" fill="url(#paint0_linear_4678_85582)"/>
<path fill-rule="evenodd" clip-rule="evenodd" d="M7.28818 8.18518L9.15529 9.25557L10.6903 8.37848L11.3282 8.01207L9.65338 7.05419L7.0668 5.5741L4.48314 7.05419L3.68794 7.50716L2.80536 8.01207L3.44326 8.37848L4.97832 9.25557L5.99489 8.67277L7.0668 8.05823L7.28818 8.18518Z" fill="var(--primary-color)"/>
<path fill-rule="evenodd" clip-rule="evenodd" d="M7.35226 7.05427L9.22229 8.12178L10.7544 7.24469L11.3952 6.87828L9.71747 5.9204L7.13089 4.44031L4.54723 5.9204L3.75203 6.37626L2.86945 6.87828L3.51026 7.24469L5.0424 8.12178L6.05898 7.54187L7.13089 6.92732L7.35226 7.05427Z" fill="var(--primary-color)"/>
<path d="M19.1579 11.9331V3.08135H21.4881L21.5377 4.77206L21.1823 4.83842C21.3047 4.55397 21.4697 4.28941 21.6717 4.05365C21.874 3.82127 22.1119 3.6217 22.3766 3.46219C22.6499 3.29523 22.9435 3.16338 23.2504 3.06981C23.545 2.97537 23.8525 2.92671 24.1621 2.92555C24.5889 2.91911 25.0131 2.99353 25.4117 3.14482C25.7809 3.28641 26.107 3.51994 26.3584 3.82284C26.6434 4.1809 26.8507 4.59346 26.9671 5.03461L26.5943 5.00287L26.7137 4.73455C26.8612 4.46499 27.0487 4.21892 27.2701 4.0046C27.4981 3.78151 27.7535 3.58765 28.0303 3.42757C28.3056 3.26879 28.5989 3.14288 28.9042 3.0525C29.194 2.96446 29.4953 2.91878 29.7984 2.91689C30.4077 2.89363 31.0119 3.03527 31.5461 3.32659C32.0201 3.61272 32.3856 4.04575 32.586 4.55856C32.8353 5.20241 32.9531 5.88888 32.9326 6.57818V11.9331H30.5266V6.73975C30.5386 6.40194 30.4811 6.06525 30.3577 5.75013C30.2603 5.51137 30.0889 5.30934 29.8683 5.1731C29.6151 5.03639 29.3292 4.97056 29.0411 4.98268C28.7965 4.97959 28.5535 5.02167 28.3245 5.10674C28.109 5.18535 27.9111 5.30492 27.742 5.45873C27.5878 5.60621 27.4649 5.7828 27.3808 5.97806C27.2853 6.1846 27.2347 6.40872 27.2322 6.63588V11.9331H24.835V6.71378C24.8437 6.3904 24.7831 6.06886 24.6573 5.77033C24.5541 5.52786 24.3808 5.32106 24.1592 5.17598C23.9184 5.03673 23.6427 4.96772 23.364 4.97691C23.1194 4.97382 22.8764 5.01589 22.6474 5.10097C22.4311 5.1779 22.2329 5.29767 22.0649 5.45296C21.907 5.60445 21.7787 5.78343 21.6862 5.98095C21.5933 6.1867 21.5485 6.41058 21.5551 6.63588V11.9331H19.1579Z" fill="#162238"/>
<path d="M38.5514 12.1004C37.8352 12.109 37.1336 11.8996 36.5416 11.5003C35.9332 11.0839 35.4444 10.5183 35.123 9.85861C34.7624 9.1189 34.5827 8.30542 34.5987 7.48411C34.582 6.66362 34.7648 5.85118 35.1318 5.11539C35.4647 4.45658 35.967 3.89632 36.5882 3.49104C37.2072 3.09861 37.9302 2.89772 38.665 2.914C39.0759 2.90946 39.4846 2.97384 39.8738 3.10442C40.2223 3.22484 40.5474 3.40341 40.8351 3.63241C41.1083 3.85127 41.3451 4.11121 41.537 4.40275C41.7263 4.68354 41.8643 4.99506 41.9448 5.32312L41.438 5.23945V3.08134H43.8207V11.933H41.3914V9.80956L41.9303 9.75763C41.8373 10.0765 41.6895 10.3771 41.4933 10.6463C41.2834 10.9325 41.0288 11.1838 40.7389 11.3906C40.4318 11.6122 40.0932 11.7872 39.734 11.91C39.3533 12.0385 38.9536 12.1029 38.5514 12.1004ZM39.2126 10.0433C39.6294 10.0517 40.0398 9.94155 40.3952 9.72589C40.7368 9.5075 41.0086 9.19727 41.1788 8.83149C41.3771 8.40983 41.4767 7.94924 41.47 7.48411C41.4762 7.02645 41.3766 6.57347 41.1788 6.15982C41.0053 5.79615 40.7343 5.48673 40.3952 5.26542C40.0417 5.04442 39.6305 4.93106 39.2126 4.93939C38.8001 4.93033 38.3943 5.04389 38.0475 5.26542C37.7106 5.48913 37.4401 5.7979 37.2639 6.15982C37.0635 6.57258 36.9638 7.02618 36.9727 7.48411C36.9632 7.94951 37.063 8.41072 37.2639 8.83149C37.4369 9.19549 37.708 9.50503 38.0475 9.72589C38.3962 9.94214 38.8013 10.0525 39.2126 10.0433Z" fill="#162238"/>
<path d="M46.2063 11.933V3.08131H48.5045L48.5715 4.89031L48.0967 5.08939C48.2281 4.67673 48.4568 4.30094 48.7637 3.99302C49.0969 3.65675 49.4925 3.38735 49.9288 3.1996C50.3752 3.00345 50.8591 2.90504 51.3474 2.91109C51.9396 2.89035 52.5265 3.02894 53.0456 3.31212C53.5132 3.59419 53.8752 4.01962 54.0767 4.5239C54.3235 5.16134 54.4403 5.8409 54.4204 6.52332V11.933H52.0232V6.69643C52.0343 6.35399 51.9768 6.01275 51.8542 5.69239C51.7555 5.44201 51.5737 5.23239 51.3386 5.09804C51.0759 4.96378 50.7792 4.90862 50.4852 4.93936C50.2294 4.93779 49.9752 4.97975 49.7337 5.06342C49.5169 5.1435 49.3188 5.26618 49.1511 5.42407C48.989 5.57716 48.8575 5.75924 48.7637 5.96071C48.6662 6.16443 48.6164 6.38732 48.6181 6.61276V11.933H46.2208H46.2063Z" fill="#162238"/>
<path d="M60.5868 12.1004C59.7926 12.1161 59.0093 11.9153 58.3225 11.52C57.6357 11.1246 57.0718 10.5499 56.6924 9.85865C56.296 9.13487 56.0953 8.32186 56.1098 7.49858C56.0977 6.67924 56.2983 5.87055 56.6924 5.15005C57.0694 4.45609 57.6325 3.87873 58.3197 3.48163C59.0069 3.08453 59.7914 2.88313 60.5868 2.89962C61.3414 2.89047 62.0895 3.03789 62.7831 3.33239C63.402 3.58794 63.9395 4.00469 64.3385 4.5384L63.019 6.11081C62.8553 5.89049 62.6589 5.69595 62.4365 5.53378C62.2019 5.36213 61.944 5.2242 61.6704 5.12409C61.3972 5.02428 61.1082 4.97348 60.8169 4.97406C60.3852 4.96477 59.9597 5.07788 59.5906 5.30008C59.2361 5.51864 58.9474 5.82754 58.7547 6.19448C58.5503 6.59866 58.4502 7.04672 58.4634 7.49858C58.4543 7.94503 58.5617 8.38624 58.7751 8.7796C58.9766 9.14813 59.2705 9.45911 59.6285 9.68265C59.9906 9.91276 60.413 10.0322 60.8432 10.026C61.1248 10.0284 61.405 9.98651 61.6733 9.90193C61.9339 9.81385 62.1787 9.6853 62.3986 9.52108C62.6356 9.34906 62.8482 9.14625 63.0307 8.91808L64.3327 10.4934C63.9067 11.0007 63.3616 11.397 62.7452 11.6475C62.066 11.9474 61.3305 12.1017 60.5868 12.1004Z" fill="#162238"/>
<path d="M70.1117 12.1004C69.2312 12.1249 68.3589 11.9263 67.5776 11.5233C66.8757 11.1534 66.291 10.5982 65.8882 9.9192C65.4733 9.20788 65.2628 8.39773 65.2794 7.57644C65.271 6.93575 65.3857 6.29933 65.6173 5.70108C65.83 5.15008 66.1518 4.64683 66.5639 4.22098C66.9753 3.79938 67.4714 3.46812 68.0203 3.24868C68.5966 3.01754 69.2134 2.90182 69.835 2.90823C70.4147 2.90171 70.9896 3.01266 71.5245 3.23425C72.0326 3.44376 72.4902 3.75742 72.8673 4.15462C73.2508 4.55683 73.5481 5.03187 73.7411 5.55105C73.9366 6.11256 74.0197 6.70644 73.9858 7.29946V8.03518H66.7999L66.4125 6.57817H72.0051L71.7342 6.88111V6.51181C71.7162 6.2171 71.6153 5.93325 71.4429 5.69242C71.2743 5.44654 71.0445 5.24781 70.7759 5.11539C70.4918 4.97908 70.1797 4.90995 69.8641 4.91342C69.4266 4.90006 68.993 4.99948 68.6058 5.20194C68.2608 5.39126 67.9854 5.68425 67.8194 6.03864C67.6276 6.45871 67.5349 6.91653 67.5485 7.37736C67.5363 7.86236 67.656 8.34167 67.8951 8.76513C68.125 9.15677 68.4651 9.47358 68.8738 9.67684C69.3386 9.90479 69.8525 10.0167 70.371 10.0029C70.7393 10.0072 71.1054 9.94565 71.4516 9.8211C71.8325 9.66551 72.1856 9.45021 72.4973 9.18348L73.6479 10.7732C73.3223 11.0634 72.9588 11.3089 72.5672 11.5032C72.1788 11.6938 71.7706 11.8418 71.3497 11.9446C70.9449 12.0459 70.5292 12.0982 70.1117 12.1004Z" fill="#162238"/>
<defs>
<linearGradient id="paint0_linear_4678_85582" x1="7.06658" y1="-2.13791" x2="7.06658" y2="9.65955" gradientUnits="userSpaceOnUse">
<stop stop-color="#162238"/>
<stop offset="1" stop-color="var(--primary-color)"/>
</linearGradient>
</defs>
</svg>
