<svg width="20" height="20" viewBox="0 0 20 20" fill="none" xmlns="http://www.w3.org/2000/svg">
<path fill-rule="evenodd" clip-rule="evenodd" d="M16.9247 16.5962L16.2652 16.2385L13.6602 14.8346L9.9999 12.8654L6.34376 14.8346L5.21848 15.4423L3.73459 16.2385L3.07509 16.5962V7.04231L9.9999 3.31154L16.9247 7.04231V16.5962ZM19.9997 18.25V6.75769C20.007 6.34021 19.8928 5.92869 19.6692 5.567C19.4456 5.20531 19.1211 4.90699 18.7301 4.70385L9.9999 0L1.27381 4.70385C0.883571 4.90809 0.559412 5.20653 0.335318 5.56789C0.111224 5.92925 -0.00454947 6.34022 0.000136824 6.75769V20H2.91021L4.57958 19.1L5.72548 18.4846L8.48304 17L9.9999 16.1808L10.3132 16.35L14.2785 18.4846L15.4202 19.1L17.0896 20H19.9997V18.25Z" fill="#015858"/>
<path fill-rule="evenodd" clip-rule="evenodd" d="M10.3134 10.9119L12.9555 12.3388L15.1278 11.1696L16.0304 10.6812L13.6603 9.40423L10.0001 7.43115L6.34395 9.40423L5.21867 10.0081L3.96973 10.6812L4.87243 11.1696L7.04468 12.3388L8.48322 11.5619L10.0001 10.7427L10.3134 10.9119Z" fill="#015858"/>
<path fill-rule="evenodd" clip-rule="evenodd" d="M10.4042 9.40454L13.0504 10.8276L15.2186 9.65838L16.1254 9.16992L13.7512 7.893L10.0909 5.91992L6.43477 7.893L5.30949 8.50069L4.06055 9.16992L4.96737 9.65838L7.1355 10.8276L8.57404 10.0545L10.0909 9.23531L10.4042 9.40454Z" fill="#015858"/>
</svg>
