<svg width="24" height="24" viewBox="0 0 24 24" fill="none" xmlns="http://www.w3.org/2000/svg">
<path d="M11.9994 3.08008C10.2349 3.08008 8.51009 3.6033 7.043 4.58358C5.57591 5.56386 4.43245 6.95717 3.75722 8.58731C3.08199 10.2175 2.90532 12.0112 3.24955 13.7418C3.59378 15.4723 4.44344 17.0619 5.6911 18.3096C6.93876 19.5573 8.52838 20.4069 10.2589 20.7512C11.9895 21.0954 13.7832 20.9187 15.4134 20.2435C17.0435 19.5683 18.4368 18.4248 19.4171 16.9577C20.3974 15.4906 20.9206 13.7658 20.9206 12.0013C20.9182 9.636 19.9776 7.36823 18.305 5.69568C16.6325 4.02314 14.3647 3.08246 11.9994 3.08008ZM15.4831 12.5638H12.5619V15.4851C12.5619 15.6343 12.5026 15.7773 12.3971 15.8828C12.2916 15.9883 12.1486 16.0476 11.9994 16.0476C11.8502 16.0476 11.7071 15.9883 11.6016 15.8828C11.4961 15.7773 11.4369 15.6343 11.4369 15.4851V12.5638H8.51563C8.36644 12.5638 8.22337 12.5046 8.11788 12.3991C8.01239 12.2936 7.95313 12.1505 7.95313 12.0013C7.95313 11.8521 8.01239 11.7091 8.11788 11.6036C8.22337 11.4981 8.36644 11.4388 8.51563 11.4388H11.4369V8.51758C11.4369 8.36839 11.4961 8.22532 11.6016 8.11983C11.7071 8.01434 11.8502 7.95508 11.9994 7.95508C12.1486 7.95508 12.2916 8.01434 12.3971 8.11983C12.5026 8.22532 12.5619 8.36839 12.5619 8.51758V11.4388H15.4831C15.6323 11.4388 15.7754 11.4981 15.8809 11.6036C15.9864 11.7091 16.0456 11.8521 16.0456 12.0013C16.0456 12.1505 15.9864 12.2936 15.8809 12.3991C15.7754 12.5046 15.6323 12.5638 15.4831 12.5638Z" fill="#008080"/>
</svg>
