<svg width="23" height="23" viewBox="0 0 23 23" fill="none" xmlns="http://www.w3.org/2000/svg">
<path d="M16.7138 18.4112L15.895 17.5912C15.7867 17.4837 15.6588 17.43 15.5113 17.43C15.3629 17.43 15.235 17.4837 15.1275 17.5912C15.02 17.6979 14.9662 17.8242 14.9662 17.97C14.9662 18.1158 15.02 18.2425 15.1275 18.35L16.2025 19.425C16.3575 19.5808 16.5321 19.6587 16.7262 19.6587C16.9204 19.6587 17.095 19.5808 17.25 19.425L19.8725 16.8412C19.98 16.7337 20.0379 16.61 20.0463 16.47C20.0546 16.3292 19.9967 16.1971 19.8725 16.0737C19.765 15.9662 19.6333 15.9125 19.4775 15.9125C19.3217 15.9125 19.1896 15.9667 19.0812 16.075L16.7138 18.4112ZM4.0875 6.08999H15.915C16.0925 6.08999 16.2408 6.03041 16.36 5.91124C16.4792 5.79207 16.5392 5.64332 16.54 5.46499C16.54 5.27082 16.48 5.11832 16.36 5.00749C16.2408 4.89582 16.0925 4.83999 15.915 4.83999H4.08625C3.90875 4.83999 3.76 4.89957 3.64 5.01874C3.52 5.13791 3.46042 5.28666 3.46125 5.46499C3.46208 5.64332 3.52167 5.79207 3.64 5.91124C3.75833 6.03041 3.90833 6.08999 4.0875 6.08999ZM17.5 22.8225C16.1075 22.8225 14.9263 22.3371 13.9563 21.3662C12.9854 20.3962 12.5 19.215 12.5 17.8225C12.5 16.43 12.9854 15.2483 13.9563 14.2775C14.9271 13.3067 16.1083 12.8217 17.5 12.8225C18.8917 12.8233 20.0733 13.3083 21.045 14.2775C22.0167 15.2467 22.5017 16.4283 22.5 17.8225C22.5 19.2142 22.015 20.3954 21.045 21.3662C20.0733 22.3371 18.8917 22.8225 17.5 22.8225ZM0 2.19749C0 1.63749 0.196667 1.16082 0.59 0.76749C0.983333 0.374157 1.46 0.17749 2.02 0.17749H17.9813C18.5396 0.17749 19.0158 0.374157 19.41 0.76749C19.8033 1.16082 20 1.63749 20 2.19749V8.84374C20 9.02124 19.9404 9.16999 19.8213 9.28999C19.7021 9.40999 19.5533 9.46957 19.375 9.46874C19.1967 9.46791 19.0479 9.40832 18.9287 9.28999C18.8096 9.17166 18.75 9.02291 18.75 8.84374V2.19749C18.75 2.00499 18.67 1.82832 18.51 1.66749C18.35 1.50666 18.1733 1.42666 17.98 1.42749H2.02C1.8275 1.42749 1.65083 1.50749 1.49 1.66749C1.32917 1.82749 1.24917 2.00416 1.25 2.19749V18.99H9.18C9.20583 19.1583 9.23625 19.3267 9.27125 19.495C9.30708 19.6633 9.35292 19.8292 9.40875 19.9925C9.46458 20.1417 9.42708 20.2637 9.29625 20.3587C9.16458 20.4546 9.03958 20.4587 8.92125 20.3712L8.61 20.1587C8.5175 20.0979 8.42 20.0675 8.3175 20.0675C8.215 20.0675 8.11708 20.0979 8.02375 20.1587L6.9275 20.9175C6.835 20.9792 6.7375 21.01 6.635 21.01C6.5325 21.01 6.43458 20.9792 6.34125 20.9175L5.245 20.1587C5.15167 20.0979 5.05375 20.0675 4.95125 20.0675C4.84875 20.0675 4.75125 20.0979 4.65875 20.1587L3.5625 20.9175C3.47 20.9792 3.3725 21.01 3.27 21.01C3.1675 21.01 3.06958 20.9792 2.97625 20.9175L1.88 20.1587C1.78667 20.0979 1.68875 20.0675 1.58625 20.0675C1.48375 20.0675 1.38625 20.0979 1.29375 20.1587L0 21.1625V2.19749ZM4.0875 15.5137H8.93C9.10833 15.5137 9.25708 15.4542 9.37625 15.335C9.49542 15.2158 9.555 15.0671 9.555 14.8887C9.555 14.7104 9.49542 14.5621 9.37625 14.4437C9.25708 14.3254 9.10833 14.2654 8.93 14.2637H4.0875C3.91 14.2637 3.76125 14.3237 3.64125 14.4437C3.52125 14.5637 3.46167 14.7121 3.4625 14.8887C3.46333 15.0654 3.52292 15.2142 3.64125 15.335C3.75958 15.4558 3.90833 15.5154 4.0875 15.5137ZM4.0875 10.8025H13.0925C13.27 10.8025 13.4188 10.7429 13.5388 10.6237C13.6588 10.5046 13.7183 10.3558 13.7175 10.1775C13.7167 9.99916 13.6571 9.85041 13.5388 9.73124C13.4204 9.61207 13.2717 9.55249 13.0925 9.55249H4.08625C3.90875 9.55249 3.76 9.61207 3.64 9.73124C3.52 9.85041 3.46083 9.99916 3.4625 10.1775C3.46417 10.3558 3.52375 10.5046 3.64125 10.6237C3.75875 10.7429 3.9075 10.8025 4.0875 10.8025Z" fill="#9AA6AC"/>
</svg>
