<svg width="18" height="18" viewBox="0 0 18 18" fill="none" xmlns="http://www.w3.org/2000/svg">
<path d="M4.5018 16.875C3.44655 16.875 2.45486 16.4514 1.71011 15.6825C0.185172 14.1069 0.185172 11.5436 1.71011 9.9675L8.78636 2.65837C9.74317 1.6695 11.0172 1.125 12.3734 1.125C13.7296 1.125 15.0037 1.6695 15.9605 2.65837C17.9242 4.68675 17.9247 7.98806 15.961 10.017L10.1977 15.9705L9.38936 15.1875L15.1533 9.23456C16.699 7.63762 16.699 5.03831 15.1527 3.44081C14.4091 2.673 13.4219 2.25 12.3734 2.25C11.3249 2.25 10.3377 2.673 9.59411 3.44081L2.51842 10.7499C1.41142 11.8941 1.41086 13.7559 2.51842 14.8995C2.77435 15.168 3.08206 15.3818 3.42297 15.528C3.76387 15.6742 4.13087 15.7497 4.5018 15.75C5.24992 15.75 5.95417 15.4479 6.48461 14.9001L11.7772 9.43313C12.446 8.74238 12.4454 7.6185 11.7772 6.92831C11.141 6.27131 10.039 6.27075 9.4023 6.92775L5.42261 11.0385L4.61486 10.2555L8.59398 6.14531C8.85164 5.87573 9.16131 5.66122 9.50424 5.51474C9.84718 5.36827 10.2163 5.29287 10.5892 5.29313C11.344 5.29313 12.0528 5.59575 12.5849 6.14531C13.6711 7.2675 13.6717 9.09281 12.5849 10.215L7.29292 15.6814C6.93271 16.0589 6.4996 16.3594 6.01982 16.5645C5.54005 16.7697 5.0236 16.8753 4.5018 16.875Z" fill="#9AA6AC"/>
</svg>
