<svg width="23" height="23" viewBox="0 0 23 23" fill="none" xmlns="http://www.w3.org/2000/svg">
<rect width="22.6875" height="22.6875" rx="11.3438" fill="var(--primary-color)" fill-opacity="0.1"/>
<g clipPath="url(#clip0_7564_186366)">
<path d="M15.1836 8.21527C14.5191 7.55027 14.02 7.64982 14.02 7.64982L11.231 10.4388L8.10925 13.5601L7.6438 15.7546L9.83878 15.2892L12.9605 12.1688L15.7495 9.37981C15.749 9.37981 15.8491 8.88072 15.1836 8.21527ZM9.70836 15.0256L8.95996 15.1869C8.87713 15.0279 8.76983 14.883 8.64198 14.7573C8.51624 14.6295 8.37133 14.5221 8.21248 14.4389L8.37377 13.691L8.59036 13.4748C8.59036 13.4748 8.99729 13.4831 9.4572 13.943C9.91666 14.402 9.92542 14.8099 9.92542 14.8099L9.70836 15.0256Z" fill="var(--primary-color)"/>
</g>
<defs>
<clipPath id="clip0_7564_186366">
<rect width="9.2168" height="9.2168" fill="white" transform="translate(7.08984 7.08984)"/>
</clipPath>
</defs>
</svg>
