<svg width="76" height="61" viewBox="0 0 76 61" fill="none" xmlns="http://www.w3.org/2000/svg">
<path d="M55.1 7.59961C58.2469 7.59961 60.8 10.1515 60.8 13.2996C60.8 15.0927 59.9569 16.779 58.52 17.8596L56.8694 19.0946C48.9606 19.8546 42.3344 25.0321 39.4963 32.1334L32.68 37.2396C31.3263 38.249 29.4738 38.249 28.12 37.2396L2.28 17.8596C0.844669 16.779 0 15.0927 0 13.2996C0 10.1515 2.55194 7.59961 5.7 7.59961H55.1ZM34.96 40.2796L38.095 37.9284C38.0356 38.5815 38 39.2346 38 39.8996C38 44.9465 39.7931 49.5896 42.7738 53.1996H7.6C3.40219 53.1996 0 49.7915 0 45.5996V20.8996L25.84 40.2796C28.5475 42.3102 32.2525 42.3102 34.96 40.2796ZM76 39.8996C76 49.3402 68.3406 56.9996 58.9 56.9996C49.4594 56.9996 41.8 49.3402 41.8 39.8996C41.8 30.459 49.4594 22.7996 58.9 22.7996C68.3406 22.7996 76 30.459 76 39.8996ZM64.2081 34.7577L57 41.9659L53.5919 38.5577C52.8556 37.8096 51.6444 37.8096 50.9081 38.5577C50.16 39.294 50.16 40.5052 50.9081 41.2415L55.6581 45.9915C56.3944 46.7396 57.6056 46.7396 58.3419 45.9915L66.8919 37.4415C67.64 36.7052 67.64 35.494 66.8919 34.7577C66.1556 34.0096 64.9444 34.0096 64.2081 34.7577Z" fill="#162238"/>
<path d="M75.9998 39.8988C75.9998 49.3395 68.3404 56.9988 58.8998 56.9988C49.4592 56.9988 41.7998 49.3395 41.7998 39.8988C41.7998 30.4582 49.4592 22.7988 58.8998 22.7988C68.3404 22.7988 75.9998 30.4582 75.9998 39.8988ZM64.2079 34.757L56.9998 41.9651L53.5917 38.557C52.8554 37.8088 51.6442 37.8088 50.9079 38.557C50.1598 39.2932 50.1598 40.5045 50.9079 41.2407L55.6579 45.9907C56.3942 46.7388 57.6054 46.7388 58.3417 45.9907L66.8917 37.4407C67.6398 36.7045 67.6398 35.4932 66.8917 34.757C66.1554 34.0088 64.9442 34.0088 64.2079 34.757Z" fill="#119C2B"/>
</svg>
