<svg width="81" height="81" viewBox="0 0 81 81" fill="none" xmlns="http://www.w3.org/2000/svg">
<path d="M33.7684 39.9178L61.1818 20.5284C60.8562 20.3483 60.4907 20.2526 60.1187 20.25H7.39273C7.19437 20.2691 6.99895 20.3116 6.81055 20.3766L33.7684 39.9178Z" fill="#162238"/>
<path d="M73.6094 26.1478H63.2819L63.1047 25.3125L35.2609 45.0309C34.8266 45.3454 34.3037 45.5138 33.7675 45.5119C33.2313 45.5138 32.7084 45.3454 32.2741 45.0309L5.26562 25.5403L10.7331 58.6237C10.8302 59.2227 11.1391 59.7669 11.6037 60.1572C12.0683 60.5474 12.6577 60.7578 13.2644 60.75H65.965C66.3349 60.7537 66.7011 60.6763 67.0378 60.5232C67.3745 60.3702 67.6736 60.1452 67.9141 59.8641C68.1499 59.5831 68.3219 59.2542 68.418 58.9002C68.5142 58.5461 68.5322 58.1754 68.4709 57.8138L66.5219 45.9928H68.4962C69.1676 45.9928 69.8114 45.7261 70.2861 45.2514C70.7608 44.7767 71.0275 44.1329 71.0275 43.4616C71.0275 42.7902 70.7608 42.1464 70.2861 41.6717C69.8114 41.197 69.1676 40.9303 68.4962 40.9303H65.8131L64.2184 31.2103H73.7359C74.4073 31.2103 75.0511 30.9436 75.5258 30.4689C76.0005 29.9942 76.2672 29.3504 76.2672 28.6791C76.2672 28.0077 76.0005 27.3639 75.5258 26.8892C75.0511 26.4145 74.4073 26.1478 73.7359 26.1478H73.6094Z" fill="#162238"/>
</svg>
