<svg width="75" height="17" viewBox="0 0 75 17" fill="none" xmlns="http://www.w3.org/2000/svg">
<path fill-rule="evenodd" clip-rule="evenodd" d="M12.4596 13.4922L11.9936 13.2215L10.1528 12.1592L7.5663 10.6691L4.98274 12.1592L4.18757 12.6191L3.139 13.2215L2.67297 13.4922V6.26264L7.5663 3.4395L12.4596 6.26264V13.4922ZM14.6325 14.7437V6.04727C14.6377 5.73135 14.557 5.41994 14.399 5.14625C14.241 4.87255 14.0117 4.64681 13.7354 4.49308L7.5663 0.933594L1.40012 4.49308C1.12436 4.64763 0.895301 4.87347 0.736948 5.14692C0.578595 5.42037 0.496785 5.73135 0.500097 6.04727V16.068H2.55646L3.7361 15.3869L4.54583 14.9212L6.49443 13.7978L7.5663 13.1779L7.78767 13.3059L10.5897 14.9212L11.3965 15.3869L12.5761 16.068H14.6325V14.7437Z" fill="white"/>
<path fill-rule="evenodd" clip-rule="evenodd" d="M7.78733 9.1906L9.65437 10.2704L11.1894 9.3856L11.8272 9.01598L10.1524 8.04971L7.56596 6.55664L4.9824 8.04971L4.18723 8.50665L3.30469 9.01598L3.94257 9.3856L5.47756 10.2704L6.49409 9.68247L7.56596 9.06254L7.78733 9.1906Z" fill="white"/>
<path fill-rule="evenodd" clip-rule="evenodd" d="M7.85178 8.05094L9.72173 9.1278L11.2538 8.24303L11.8946 7.8734L10.2169 6.90713L7.63042 5.41406L5.04685 6.90713L4.25169 7.36698L3.36914 7.8734L4.00993 8.24303L5.54201 9.1278L6.55854 8.5428L7.63042 7.92288L7.85178 8.05094Z" fill="white"/>
<path d="M19.6572 12.9707V4.04143H21.9874L22.0369 5.74696L21.6816 5.8139C21.804 5.52696 21.9689 5.26008 22.1709 5.02225C22.3732 4.78783 22.6111 4.58651 22.8758 4.42561C23.1491 4.25718 23.4427 4.12418 23.7496 4.02979C24.0441 3.93452 24.3517 3.88543 24.6612 3.88427C25.0881 3.87777 25.5122 3.95284 25.9108 4.10546C26.28 4.24828 26.606 4.48386 26.8574 4.78942C27.1424 5.15062 27.3497 5.56679 27.4662 6.01181L27.0933 5.97979L27.2128 5.70912C27.3602 5.4372 27.5478 5.18897 27.7691 4.97278C27.9971 4.74773 28.2525 4.55217 28.5293 4.39069C28.8046 4.23051 29.0979 4.1035 29.4031 4.01233C29.6929 3.92352 29.9942 3.87743 30.2973 3.87553C30.9066 3.85207 31.5108 3.99495 32.0449 4.28882C32.519 4.57746 32.8844 5.01429 33.0848 5.53158C33.3341 6.18108 33.4519 6.87357 33.4314 7.5689V12.9707H31.0255V7.73189C31.0375 7.39112 30.98 7.05148 30.8566 6.7336C30.7591 6.49275 30.5878 6.28895 30.3672 6.15151C30.1141 6.0136 29.8281 5.9472 29.54 5.95942C29.2955 5.95631 29.0525 5.99875 28.8235 6.08457C28.608 6.16387 28.4101 6.28449 28.2409 6.43965C28.0868 6.58842 27.9639 6.76655 27.8798 6.96353C27.7843 7.17188 27.7337 7.39796 27.7312 7.62711V12.9707H25.3341V7.7057C25.3428 7.37948 25.2822 7.05512 25.1564 6.75398C25.0532 6.50938 24.8799 6.30077 24.6583 6.15442C24.4175 6.01395 24.1419 5.94433 23.8632 5.9536C23.6186 5.95049 23.3756 5.99293 23.1466 6.07875C22.9303 6.15636 22.7321 6.27717 22.5641 6.43383C22.4063 6.58665 22.2779 6.76719 22.1854 6.96644C22.0926 7.174 22.0477 7.39984 22.0544 7.62711V12.9707H19.6572Z" fill="white"/>
<path d="M39.0493 13.1409C38.3331 13.1496 37.6315 12.9383 37.0395 12.5355C36.4312 12.1155 35.9424 11.5449 35.621 10.8794C35.2604 10.1333 35.0808 9.31264 35.0968 8.48413C35.08 7.65645 35.2629 6.83689 35.6298 6.09465C35.9627 5.43007 36.465 4.8649 37.0861 4.45606C37.7051 4.0602 38.4281 3.85755 39.1629 3.87397C39.5738 3.86938 39.9825 3.93433 40.3716 4.06606C40.7201 4.18753 41.0452 4.36767 41.3328 4.59867C41.606 4.81945 41.8429 5.08167 42.0348 5.37577C42.224 5.65902 42.3621 5.97327 42.4426 6.3042L41.9358 6.2198V4.04278H44.3184V12.9721H41.8892V10.83L42.428 10.7776C42.3351 11.0993 42.1873 11.4025 41.9911 11.674C41.7812 11.9628 41.5265 12.2163 41.2367 12.4249C40.9296 12.6484 40.591 12.8249 40.2318 12.9488C39.8512 13.0785 39.4515 13.1434 39.0493 13.1409ZM39.7105 11.0657C40.1272 11.0742 40.5376 10.9631 40.893 10.7456C41.2346 10.5253 41.5064 10.2123 41.6765 9.84332C41.8749 9.41797 41.9744 8.95334 41.9678 8.48413C41.974 8.02246 41.8743 7.56551 41.6765 7.14823C41.5031 6.78138 41.2321 6.46925 40.893 6.24599C40.5396 6.02306 40.1284 5.9087 39.7105 5.91711C39.2979 5.90797 38.8921 6.02252 38.5454 6.24599C38.2085 6.47167 37.938 6.78314 37.7619 7.14823C37.5615 7.56461 37.4617 8.02219 37.4706 8.48413C37.4612 8.95361 37.5609 9.41886 37.7619 9.84332C37.9348 10.2105 38.2059 10.5228 38.5454 10.7456C38.8941 10.9637 39.2991 11.075 39.7105 11.0657Z" fill="white"/>
<path d="M46.7041 12.9722V4.0429H49.0022L49.0692 5.86776L48.5944 6.06858C48.7259 5.6523 48.9545 5.27322 49.2614 4.96261C49.5947 4.62339 49.9902 4.35163 50.4265 4.16223C50.8729 3.96436 51.3567 3.86509 51.845 3.87119C52.4372 3.85027 53.024 3.99007 53.5431 4.27574C54.0107 4.56028 54.3727 4.98944 54.5742 5.49813C54.821 6.14116 54.9378 6.82668 54.9179 7.51508V12.9722H52.5208V7.6897C52.5319 7.34426 52.4745 7.00004 52.3518 6.67687C52.2531 6.42429 52.0713 6.21283 51.8363 6.07731C51.5735 5.94187 51.2769 5.88622 50.9829 5.91724C50.727 5.91565 50.4729 5.95798 50.2314 6.04239C50.0146 6.12317 49.8165 6.24692 49.6488 6.40619C49.4867 6.56063 49.3553 6.7443 49.2614 6.94754C49.164 7.15304 49.1142 7.37789 49.1158 7.6053V12.9722H46.7187H46.7041Z" fill="white"/>
<path d="M61.084 13.1398C60.2898 13.1557 59.5066 12.9531 58.8198 12.5543C58.133 12.1555 57.5691 11.5757 57.1897 10.8784C56.7934 10.1483 56.5927 9.32813 56.6072 8.49763C56.5951 7.67111 56.7957 6.85534 57.1897 6.12852C57.5667 5.42848 58.1298 4.84606 58.8169 4.44548C59.5041 4.0449 60.2886 3.84173 61.084 3.85837C61.8385 3.84914 62.5866 3.99785 63.2802 4.29494C63.899 4.55273 64.4365 4.97312 64.8355 5.51151L63.5161 7.09771C63.3524 6.87546 63.156 6.67921 62.9336 6.51561C62.699 6.34246 62.4411 6.20332 62.1675 6.10233C61.8943 6.00165 61.6053 5.9504 61.3141 5.95099C60.8823 5.94162 60.4569 6.05572 60.0879 6.27987C59.7333 6.50034 59.4446 6.81195 59.2519 7.18211C59.0475 7.58983 58.9474 8.04181 58.9606 8.49763C58.9516 8.94799 59.0589 9.39307 59.2723 9.78988C59.4739 10.1616 59.7678 10.4754 60.1257 10.7009C60.4878 10.933 60.9102 11.0534 61.3403 11.0472C61.6219 11.0496 61.9021 11.0074 62.1704 10.922C62.431 10.8332 62.6758 10.7035 62.8957 10.5379C63.1327 10.3643 63.3453 10.1597 63.5277 9.92958L64.8297 11.5187C64.4037 12.0305 63.8587 12.4302 63.2423 12.6829C62.5631 12.9854 61.8276 13.1411 61.084 13.1398Z" fill="white"/>
<path d="M70.6085 13.1402C69.728 13.1649 68.8557 12.9645 68.0744 12.5581C67.3726 12.1849 66.7878 11.6248 66.3851 10.9399C65.9702 10.2223 65.7597 9.40508 65.7763 8.57658C65.7679 7.93028 65.8826 7.28829 66.1142 6.68478C66.3268 6.12896 66.6487 5.6213 67.0608 5.19172C67.4721 4.76642 67.9683 4.43225 68.5171 4.2109C69.0934 3.97773 69.7101 3.861 70.3318 3.86746C70.9114 3.86088 71.4863 3.9728 72.0211 4.19634C72.5293 4.40768 72.9869 4.72409 73.3639 5.12478C73.7474 5.53051 74.0447 6.00971 74.2377 6.53344C74.4332 7.09988 74.5163 7.69896 74.4824 8.29718V9.03934H67.2967L66.9093 7.56956H72.5017L72.2308 7.87516V7.50262C72.2129 7.20533 72.112 6.919 71.9396 6.67605C71.7709 6.42802 71.5412 6.22755 71.2726 6.09396C70.9885 5.95646 70.6765 5.88672 70.3609 5.89023C69.9233 5.87675 69.4897 5.97704 69.1026 6.18127C68.7576 6.37225 68.4822 6.66781 68.3162 7.02531C68.1244 7.44906 68.0318 7.91089 68.0453 8.37576C68.0332 8.86501 68.1529 9.34852 68.3919 9.77569C68.6218 10.1708 68.9618 10.4904 69.3706 10.6954C69.8353 10.9253 70.3493 11.0382 70.8677 11.0243C71.236 11.0287 71.6021 10.9666 71.9483 10.8409C72.3291 10.684 72.6822 10.4668 72.994 10.1977L74.1445 11.8014C73.8189 12.0941 73.4554 12.3417 73.0639 12.5377C72.6755 12.7301 72.2672 12.8794 71.8464 12.983C71.4416 13.0852 71.0259 13.1379 70.6085 13.1402Z" fill="white"/>
</svg>
