<svg width="23" height="23" viewBox="0 0 23 23" fill="none" xmlns="http://www.w3.org/2000/svg">
	<rect width="22.6875" height="22.6875" rx="11.3438" fill="#008080" fill-opacity="0.1" />
	<g clipPath="url(#clip0_10777_251979)">
		<path d="M15.1834 8.21429C14.5188 7.5493 14.0197 7.64884 14.0197 7.64884L11.2307 10.4378L8.109 13.5591L7.64355 15.7536L9.83853 15.2882L12.9603 12.1678L15.7493 9.37883C15.7488 9.37883 15.8488 8.87974 15.1834 8.21429ZM9.70812 15.0246L8.95971 15.1859C8.87689 15.0269 8.76958 14.882 8.64173 14.7564C8.51599 14.6285 8.37108 14.5211 8.21223 14.4379L8.37352 13.69L8.59012 13.4739C8.59012 13.4739 8.99704 13.4821 9.45696 13.9421C9.91642 14.4011 9.92517 14.8089 9.92517 14.8089L9.70812 15.0246Z" fill="#008080" />
	</g>
	<defs>
		<clipPath id="clip0_10777_251979">
			<rect width="9.2168" height="9.2168" fill="white" transform="translate(7.08984 7.08984)" />
		</clipPath>
	</defs>
</svg>
