<svg width="48" height="48" viewBox="0 0 48 48" fill="none" xmlns="http://www.w3.org/2000/svg">
<path d="M12.726 33.4534L15.6414 38.6456C15.6831 38.7215 15.7327 38.7927 15.7895 38.858C16.9098 40.1522 18.7092 40.5184 20.2067 39.8872C20.5716 39.7334 20.9161 39.5212 21.2311 39.2489C22.8379 37.8573 23.0146 35.4165 21.6225 33.8085L19.3653 31.2006L19.6745 31.0703L30.8477 31.7954C31.0509 31.8074 31.2485 31.773 31.4298 31.6966C31.6466 31.6052 31.8372 31.4551 31.9774 31.2579C32.2372 30.8945 32.2896 30.4231 32.1164 30.012L30.048 25.1046C31.8638 23.7156 32.6036 21.237 31.6758 19.0356C30.7479 16.8343 28.4571 15.6331 26.1949 15.9629L24.1265 11.0555C23.9532 10.6444 23.5796 10.354 23.1388 10.2845C22.6979 10.215 22.2539 10.3798 21.964 10.7183L14.682 19.222L10.2225 21.1016C6.95608 22.4784 5.4187 26.2559 6.79546 29.5224C7.82965 31.976 10.2173 33.4532 12.726 33.4534ZM19.6782 35.4917C20.1424 36.0271 20.0845 36.8398 19.5479 37.3046C19.0381 37.7469 18.2808 37.7145 17.8088 37.2535L15.3572 32.89L16.8725 32.2513L19.6782 35.4917ZM29.3062 20.0344C29.6742 20.9076 29.513 21.8657 28.9813 22.5739L27.262 18.4948C28.1397 18.6076 28.9382 19.1612 29.3062 20.0344ZM28.9388 29.0937L20.3321 28.5356L16.9544 20.5218L22.5649 13.9712L28.9388 29.0937ZM11.2212 23.4712L14.7756 21.9731L17.7718 29.0817L14.2174 30.5799C12.2578 31.4058 9.99096 30.4832 9.16501 28.5236C8.33906 26.564 9.26162 24.2971 11.2212 23.4712Z" fill="#FFC043"/>
<path d="M36.914 18.2225L39.2835 17.2238C39.9387 16.9477 40.2446 16.1937 39.9689 15.5397C39.6933 14.8857 38.94 14.5781 38.2848 14.8543L35.9152 15.853C35.2601 16.1291 34.9542 16.8831 35.2298 17.5371C35.5055 18.1911 36.2588 18.4987 36.914 18.2225Z" fill="#FFC043"/>
<path d="M34.2689 11.9514C34.5722 11.8236 34.8266 11.5796 34.9603 11.2512L35.9294 8.86985C36.1974 8.21135 35.8818 7.46257 35.2233 7.19458C34.5648 6.92658 33.8161 7.24218 33.5481 7.90068L32.5789 10.2821C32.3109 10.9406 32.6265 11.6893 33.285 11.9573C33.6139 12.0922 33.9656 12.0793 34.2689 11.9514Z" fill="#FFC043"/>
<path d="M40.9564 25.4694C41.2848 25.6031 41.637 25.5913 41.9403 25.4635C42.2436 25.3356 42.498 25.0917 42.6316 24.7633C42.8996 24.1048 42.584 23.356 41.9255 23.088L39.5441 22.1189C38.8856 21.8509 38.1369 22.1665 37.8689 22.825C37.6009 23.4835 37.9165 24.2322 38.575 24.5002L40.9564 25.4694Z" fill="#FFC043"/>
</svg>
