<svg
width="24"
height="24"
viewBox="0 0 24 24"
fill="none"
xmlns="http://www.w3.org/2000/svg"
>
<path
  d="M11.5297 14.7201C11.6701 14.8607 11.749 15.0513 11.749 15.2501C11.749 15.4488 11.6701 15.6395 11.5297 15.7801C11.3891 15.9205 11.1984 15.9994 10.9997 15.9994C10.8009 15.9994 10.6103 15.9205 10.4697 15.7801L7.21968 12.5301C7.07923 12.3895 7.00034 12.1988 7.00034 12.0001C7.00034 11.8013 7.07923 11.6107 7.21968 11.4701L10.4697 8.22009C10.6119 8.08761 10.7999 8.01549 10.9942 8.01892C11.1885 8.02234 11.3739 8.10106 11.5113 8.23847C11.6487 8.37588 11.7274 8.56127 11.7309 8.75557C11.7343 8.94987 11.6622 9.13792 11.5297 9.28009L8.80968 12.0001L11.5297 14.7201ZM11.4697 12.5301L15.7197 16.7801C15.8603 16.9205 16.0509 16.9994 16.2497 16.9994C16.4484 16.9994 16.6391 16.9205 16.7797 16.7801C16.9201 16.6395 16.999 16.4488 16.999 16.2501C16.999 16.0513 16.9201 15.8607 16.7797 15.7201L13.0597 12.0001L16.7797 8.28009C16.9122 8.13792 16.9843 7.94987 16.9809 7.75557C16.9774 7.56127 16.8987 7.37588 16.7613 7.23847C16.6239 7.10106 16.4385 7.02234 16.2442 7.01892C16.0499 7.01549 15.8619 7.08761 15.7197 7.22009L11.4697 11.4701C11.3292 11.6107 11.2503 11.8013 11.2503 12.0001C11.2503 12.1988 11.3292 12.3895 11.4697 12.5301Z"
  fill="#6E7C87"
/>
</svg>