<svg width="19" height="25" viewBox="0 0 19 25" fill="none" xmlns="http://www.w3.org/2000/svg">
<path d="M9.63281 22.9894C10.3897 22.9894 11.1465 22.9484 11.9004 22.8724C11.434 23.6509 10.5803 24.1602 9.63281 24.1602C8.68529 24.1602 7.83164 23.6509 7.36521 22.8724C8.11912 22.9484 8.87597 22.9894 9.63281 22.9894ZM11.0849 1.48308C11.0116 0.742595 10.3926 0.160156 9.63281 0.160156C8.87303 0.160156 8.25406 0.742595 8.18073 1.48308C8.65009 1.38357 9.13412 1.33089 9.63281 1.33089C10.1315 1.33089 10.6155 1.38357 11.0849 1.48308ZM15.4177 11.2499C15.4177 14.4636 16.5588 17.4841 18.6328 19.7963C15.8205 21.1288 12.7462 21.8202 9.63281 21.8202C6.51946 21.8202 3.44513 21.1288 0.632812 19.7963C2.70974 17.4841 3.84794 14.4636 3.84794 11.2499V8.20601C3.84794 5.05967 6.44116 2.50162 9.63281 2.50162C12.8245 2.50162 15.4177 5.05967 15.4177 8.20601V11.2499ZM10.2195 4.84308C10.2195 4.52113 9.9555 4.25772 9.63281 4.25772C7.36814 4.25772 5.5259 6.09577 5.5259 8.35528C5.5259 8.67723 5.78992 8.94064 6.1126 8.94064C6.43529 8.94064 6.69931 8.67723 6.69931 8.35528C6.69931 8.12699 6.72864 7.90455 6.77851 7.69089C7.03079 6.61089 7.88444 5.75918 8.96691 5.50747C9.18105 5.45772 9.404 5.42845 9.63281 5.42845C9.9555 5.42845 10.2195 5.16503 10.2195 4.84308Z" fill="#3E4345"/>
</svg>
