<svg width="24" height="24" viewBox="0 0 24 24" fill="none" xmlns="http://www.w3.org/2000/svg">
<rect width="24" height="24" rx="12" fill="#DDE2E4"/>
<path d="M6.91395 7.04617L6.90792 7.05338L6.90257 7.06111C6.73375 7.3048 6.75761 7.64149 6.97472 7.85861L6.97473 7.85861L11.1162 12L6.97473 16.1414L6.96814 16.148L6.96216 16.1551L6.91395 16.2128L6.90792 16.22L6.90257 16.2278C6.73375 16.4715 6.75761 16.8082 6.97472 17.0253L6.98131 17.0319L6.98847 17.0378L7.04617 17.0861L7.05338 17.0921L7.06111 17.0974C7.3048 17.2662 7.64149 17.2424 7.85861 17.0253L7.71129 16.878L7.85861 17.0253L12 12.8838L16.1414 17.0253L16.148 17.0319L16.1551 17.0378L16.2128 17.0861L16.22 17.0921L16.2278 17.0974C16.4715 17.2662 16.8082 17.2424 17.0253 17.0253L17.0319 17.0187L17.0378 17.0115L17.0861 16.9538L17.0921 16.9466L17.0974 16.9389C17.2662 16.6952 17.2424 16.3585 17.0253 16.1414L12.8838 12L17.0253 7.85861L17.0319 7.85202L17.0378 7.84487L17.0861 7.78716L17.0921 7.77995L17.0974 7.77223C17.2662 7.52853 17.2424 7.19184 17.0253 6.97472L17.0187 6.96814L17.0115 6.96216L16.9538 6.91395L16.9466 6.90792L16.9389 6.90257C16.6952 6.73375 16.3585 6.75761 16.1414 6.97472L12 11.1162L7.85861 6.97473L7.85202 6.96814L7.84487 6.96216L7.78716 6.91395L7.77995 6.90792L7.77223 6.90257C7.52853 6.73375 7.19184 6.75761 6.97473 6.97472L6.96814 6.98131L6.96216 6.98846L6.91395 7.04617Z" fill="#252C32" stroke="#252C32" stroke-width="0.416667"/>
</svg>
