<svg width="49" height="48" viewBox="0 0 49 48" fill="none" xmlns="http://www.w3.org/2000/svg">
<path d="M21.5215 17.1255C21.7168 17.2929 21.7168 17.5643 21.5215 17.7316L20.1882 18.8745C19.9929 19.0418 19.6763 19.0418 19.4811 18.8745L18.8144 18.3031C18.6192 18.1357 18.6192 17.8643 18.8144 17.697C19.0097 17.5296 19.3263 17.5296 19.5215 17.697L19.8346 17.9653L20.8144 17.1255C21.0097 16.9582 21.3262 16.9582 21.5215 17.1255Z" fill="#6B51DF"/>
<path d="M25.568 17.38C25.0709 17.38 24.668 17.6576 24.668 18C24.668 18.3424 25.0709 18.62 25.568 18.62H29.768C30.265 18.62 30.668 18.3424 30.668 18C30.668 17.6576 30.265 17.38 29.768 17.38H25.568Z" fill="#6B51DF"/>
<path d="M21.5215 21.7316C21.7168 21.5642 21.7168 21.2929 21.5215 21.1255C21.3262 20.9582 21.0097 20.9582 20.8144 21.1255L19.8346 21.9653L19.5215 21.697C19.3263 21.5296 19.0097 21.5296 18.8144 21.697C18.6192 21.8643 18.6192 22.1357 18.8144 22.303L19.4811 22.8745C19.6763 23.0418 19.9929 23.0418 20.1882 22.8745L21.5215 21.7316Z" fill="#6B51DF"/>
<path d="M24.668 22C24.668 21.6576 25.0708 21.38 25.568 21.38H29.7679C30.2651 21.38 30.668 21.6576 30.668 22C30.668 22.3424 30.2651 22.62 29.7679 22.62H25.568C25.0708 22.62 24.668 22.3424 24.668 22Z" fill="#6B51DF"/>
<path d="M21.5215 25.7316C21.7168 25.5642 21.7168 25.2929 21.5215 25.1255C21.3262 24.9582 21.0097 24.9582 20.8144 25.1255L19.8346 25.9653L19.5215 25.697C19.3263 25.5296 19.0097 25.5296 18.8144 25.697C18.6192 25.8643 18.6192 26.1357 18.8144 26.303L19.4811 26.8745C19.6763 27.0418 19.9929 27.0418 20.1882 26.8745L21.5215 25.7316Z" fill="#6B51DF"/>
<path d="M24.668 26C24.668 25.6576 25.0708 25.38 25.568 25.38H29.7679C30.2651 25.38 30.668 25.6576 30.668 26C30.668 26.3424 30.2651 26.62 29.7679 26.62H25.568C25.0708 26.62 24.668 26.3424 24.668 26Z" fill="#6B51DF"/>
<path d="M21.5215 29.7316C21.7168 29.5642 21.7168 29.2929 21.5215 29.1255C21.3262 28.9582 21.0097 28.9582 20.8144 29.1255L19.8346 29.9653L19.5215 29.697C19.3263 29.5296 19.0097 29.5296 18.8144 29.697C18.6192 29.8643 18.6192 30.1357 18.8144 30.303L19.4811 30.8745C19.6763 31.0418 19.9929 31.0418 20.1882 30.8745L21.5215 29.7316Z" fill="#6B51DF"/>
<path d="M24.668 30C24.668 29.6576 25.0708 29.38 25.568 29.38H29.7679C30.2651 29.38 30.668 29.6576 30.668 30C30.668 30.3424 30.2651 30.62 29.7679 30.62H25.568C25.0708 30.62 24.668 30.3424 24.668 30Z" fill="#6B51DF"/>
<path d="M15.668 12C14.0111 12 12.668 13.3431 12.668 15V33C12.668 34.6568 14.0111 36 15.668 36H33.668C35.3248 36 36.668 34.6568 36.668 33V15C36.668 13.3431 35.3248 12 33.668 12H15.668ZM13.668 15C13.668 14.4477 15.1157 13 15.668 13H33.668C34.2202 13 35.668 14.4477 35.668 15V33C35.668 33.5523 34.2202 35 33.668 35H15.668C15.1157 35 13.668 33.5523 13.668 33V15Z" fill="#6B51DF"/>
</svg>
