<svg width="43" height="42" viewBox="0 0 43 42" fill="none" xmlns="http://www.w3.org/2000/svg">
<path d="M35.4451 33.9355H32.2V10.8176C32.1766 10.8235 32.159 10.8235 32.1355 10.8235H11.141C11.1175 10.8235 11.0999 10.8235 11.0764 10.8176V33.9355H7.83384C7.50953 33.9355 7.24707 34.1979 7.24707 34.5222C7.24707 34.8466 7.50953 35.109 7.83384 35.109C12.1243 35.1091 31.2049 35.1091 35.4451 35.109C35.7694 35.109 36.0318 34.8466 36.0318 34.5222C36.0318 34.1979 35.7694 33.9355 35.4451 33.9355ZM26.9249 19.7894H29.0315V23.4567H26.9249V19.7895V19.7894ZM29.0315 13.3818V17.049H26.9249V13.382L26.9249 13.3818H29.0315ZM23.6508 13.3818H25.7515L25.7514 13.382V17.049H23.6508V13.3818ZM23.6508 19.7894H25.7515L25.7514 19.7895V23.4567H23.6508V19.7894ZM19.6256 13.3818V17.049H17.5252V13.382L17.5252 13.3818H19.6256ZM17.5252 26.1968H19.6256V29.8641H17.5252V26.1969L17.5252 26.1968ZM17.5252 23.4567V19.7895L17.5252 19.7894H19.6256V23.4567H17.5252ZM14.2508 13.3818H16.3517L16.3517 13.382V17.049H14.2508V13.3818ZM14.2508 19.7894H16.3517L16.3517 19.7895V23.4567H14.2508V19.7894ZM14.2508 26.1968H16.3517L16.3517 26.1969V29.8641H14.2508V26.1968ZM22.3189 26.1968H29.0315V33.9355H22.3189V26.1968ZM11.141 9.64998H32.1355C33.1975 9.64998 34.066 8.78749 34.066 7.71952C34.066 6.65741 33.1975 5.79492 32.1355 5.79492H11.141C10.0789 5.79492 9.21639 6.65741 9.21639 7.71952C9.21639 8.78749 10.0789 9.64998 11.141 9.64998Z" fill="#0452C8"/>
</svg>
