<svg width="24" height="24" viewBox="0 0 24 24" fill="none" xmlns="http://www.w3.org/2000/svg">
<path d="M11.5297 14.7198C11.6701 14.8605 11.749 15.0511 11.749 15.2498C11.749 15.4486 11.6701 15.6392 11.5297 15.7798C11.3891 15.9203 11.1984 15.9992 10.9997 15.9992C10.8009 15.9992 10.6103 15.9203 10.4697 15.7798L7.21968 12.5298C7.07923 12.3892 7.00034 12.1986 7.00034 11.9998C7.00034 11.8011 7.07923 11.6105 7.21968 11.4698L10.4697 8.21985C10.6119 8.08737 10.7999 8.01524 10.9942 8.01867C11.1885 8.0221 11.3739 8.10081 11.5113 8.23822C11.6487 8.37564 11.7274 8.56102 11.7309 8.75532C11.7343 8.94963 11.6622 9.13767 11.5297 9.27985L8.80968 11.9998L11.5297 14.7198ZM11.4697 12.5298L15.7197 16.7798C15.8603 16.9203 16.0509 16.9992 16.2497 16.9992C16.4484 16.9992 16.6391 16.9203 16.7797 16.7798C16.9201 16.6392 16.999 16.4486 16.999 16.2498C16.999 16.0511 16.9201 15.8605 16.7797 15.7198L13.0597 11.9998L16.7797 8.27985C16.9122 8.13767 16.9843 7.94963 16.9809 7.75532C16.9774 7.56102 16.8987 7.37564 16.7613 7.23822C16.6239 7.10081 16.4385 7.0221 16.2442 7.01867C16.0499 7.01524 15.8619 7.08737 15.7197 7.21985L11.4697 11.4698C11.3292 11.6105 11.2503 11.8011 11.2503 11.9998C11.2503 12.1986 11.3292 12.3892 11.4697 12.5298Z" fill="#6E7C87"/>
</svg>
