<svg width="10" height="10" viewBox="0 0 10 10" fill="none" xmlns="http://www.w3.org/2000/svg">
<path d="M4.53066 7.72082C4.67111 7.86145 4.75 8.05207 4.75 8.25082C4.75 8.44957 4.67111 8.6402 4.53066 8.78082C4.39003 8.92127 4.19941 9.00016 4.00066 9.00016C3.80191 9.00016 3.61129 8.92127 3.47066 8.78082L0.220659 5.53082C0.0802088 5.3902 0.00131989 5.19957 0.00131989 5.00082C0.00131989 4.80207 0.0802088 4.61145 0.220659 4.47082L3.47066 1.22082C3.61283 1.08834 3.80088 1.01622 3.99518 1.01965C4.18948 1.02308 4.37487 1.10179 4.51228 1.2392C4.64969 1.37661 4.72841 1.562 4.73184 1.7563C4.73526 1.9506 4.66314 2.13865 4.53066 2.28082L1.81066 5.00082L4.53066 7.72082ZM4.47066 5.53082L8.72066 9.78082C8.86129 9.92127 9.05191 10.0002 9.25066 10.0002C9.44941 10.0002 9.64003 9.92127 9.78066 9.78082C9.92111 9.6402 10 9.44957 10 9.25082C10 9.05207 9.92111 8.86145 9.78066 8.72082L6.06066 5.00082L9.78066 1.28082C9.91314 1.13865 9.98526 0.950602 9.98183 0.7563C9.97841 0.561999 9.89969 0.376614 9.76228 0.239201C9.62487 0.101788 9.43948 0.0230763 9.24518 0.0196481C9.05088 0.0162199 8.86284 0.0883428 8.72066 0.220823L4.47066 4.47082C4.33021 4.61145 4.25132 4.80207 4.25132 5.00082C4.25132 5.19957 4.33021 5.3902 4.47066 5.53082Z" fill="white"/>
</svg>
