<svg width="62" height="73" viewBox="0 0 62 73" fill="none" xmlns="http://www.w3.org/2000/svg">
<g clipPath="url(#clip0_10742_243383)">
<path opacity="0.15" d="M61.5 67.3149C61.5 68.6368 60.9732 69.9045 60.0355 70.8392C59.0979 71.7739 57.8261 72.299 56.5 72.299H16.5C15.1739 72.299 13.9021 71.7739 12.9645 70.8392C12.0268 69.9045 11.5 68.6368 11.5 67.3149V16.4773C11.5 15.1554 12.0268 13.8877 12.9645 12.953C13.9021 12.0183 15.1739 11.4932 16.5 11.4932H33.35C36.5048 11.6473 39.5131 12.8672 41.88 14.9521L58 31.0108C60.1191 33.3632 61.3681 36.3667 61.54 39.5237L61.5 67.3149Z" fill="#EBF8F5"/>
<path d="M47.5 65.7899H7.5C5.51687 65.7873 3.61527 65.0029 2.21017 63.6079C0.80508 62.2129 0.0105609 60.3205 0 58.3437L0 7.47613C0.00264579 5.49415 0.793672 3.5941 2.19962 2.19262C3.60557 0.791146 5.51169 0.00263737 7.5 0L24.35 0C28.1799 0.161798 31.8287 1.66964 34.65 4.25641L50.73 20.2852C53.3243 23.0981 54.8368 26.735 55 30.5524V58.3437C54.9894 60.3205 54.1949 62.2129 52.7898 63.6079C51.3847 65.0029 49.4831 65.7873 47.5 65.7899ZM5 4.98409V60.8058H50V30.5524C49.8246 28.06 48.842 25.6918 47.2 23.804L31.12 7.77517C29.2266 6.13776 26.8506 5.15818 24.35 4.98409H5Z" fill="#6E7C87"/>
<path d="M39.59 51.4658H15.41M52.5 25.5685H29.35V2.49219L52.5 25.5685ZM39.59 35.8058H15.41H39.59ZM39.59 43.6308H15.41H39.59Z" stroke="#6E7C87" stroke-width="2" stroke-miterlimit="10"/>
<line x1="1.5" y1="-1.5" x2="14.4746" y2="-1.5" transform="matrix(0.708233 -0.705979 0.708233 0.705979 50.0947 14.2676)" stroke="#6E7C87" stroke-width="3" stroke-linecap="round"/>
<line x1="1.5" y1="-1.5" x2="14.4746" y2="-1.5" transform="matrix(0.708233 0.705979 -0.708233 0.705979 48 3.39746)" stroke="#6E7C87" stroke-width="3" stroke-linecap="round"/>
</g>
<defs>
<clipPath id="clip0_10742_243383">
<rect width="61.5" height="72.2991" fill="white"/>
</clipPath>
</defs>
</svg>
