<svg width="62" height="73" viewBox="0 0 62 73" fill="none" xmlns="http://www.w3.org/2000/svg">
<path opacity="0.15" d="M61.75 67.5312C61.75 68.8573 61.2232 70.1291 60.2855 71.0668C59.3479 72.0045 58.0761 72.5312 56.75 72.5312H16.75C15.4239 72.5312 14.1521 72.0045 13.2145 71.0668C12.2768 70.1291 11.75 68.8573 11.75 67.5312V16.5313C11.75 15.2052 12.2768 13.9334 13.2145 12.9957C14.1521 12.058 15.4239 11.5312 16.75 11.5312H33.6C36.7548 11.6859 39.7631 12.9097 42.13 15.0013L58.25 31.1113C60.3691 33.4711 61.6181 36.4843 61.79 39.6513L61.75 67.5312Z" fill="#EBF8F5"/>
<path d="M47.75 66H7.75C5.76687 65.9974 3.86527 65.2105 2.46017 63.811C1.05508 62.4115 0.260561 60.5131 0.25 58.53L0.25 7.5C0.252646 5.51169 1.04367 3.60557 2.44962 2.19962C3.85557 0.793672 5.76169 0.00264579 7.75 0L24.6 0C28.4299 0.162315 32.0787 1.67497 34.9 4.27L50.98 20.35C53.5743 23.1718 55.0868 26.8203 55.25 30.65V58.53C55.2394 60.5131 54.4449 62.4115 53.0398 63.811C51.6347 65.2105 49.7331 65.9974 47.75 66ZM5.25 5V61H50.25V30.65C50.0746 28.1496 49.092 25.7738 47.45 23.88L31.37 7.8C29.4766 6.15736 27.1006 5.17465 24.6 5H5.25Z" fill="#6E7C87"/>
<path d="M39.8363 51.63H15.6562M52.7463 25.65H29.5963V2.5L52.7463 25.65ZM39.8363 35.92H15.6562H39.8363ZM39.8363 43.77H15.6562H39.8363Z" stroke="#6E7C87" stroke-width="2" stroke-miterlimit="10"/>
</svg>
