<svg width="62" height="62" viewBox="0 0 62 62" fill="none" xmlns="http://www.w3.org/2000/svg">
	<g clip-path="url(#clip0_7970_167990)">
		<path d="M23.2493 28.4167C25.2931 28.4167 27.2909 27.8106 28.9902 26.6752C30.6895 25.5397 32.014 23.9259 32.7961 22.0377C33.5782 20.1496 33.7828 18.0719 33.3841 16.0674C32.9854 14.0629 32.0013 12.2217 30.5561 10.7766C29.111 9.33142 27.2698 8.34727 25.2653 7.94856C23.2608 7.54984 21.1831 7.75448 19.295 8.53658C17.4068 9.31869 15.7929 10.6431 14.6575 12.3424C13.5221 14.0418 12.916 16.0396 12.916 18.0833C12.916 20.8239 14.0047 23.4522 15.9426 25.3901C17.8805 27.328 20.5088 28.4167 23.2493 28.4167ZM23.2493 12.9167C24.2712 12.9167 25.2701 13.2197 26.1198 13.7874C26.9694 14.3551 27.6317 15.1621 28.0227 16.1061C28.4138 17.0502 28.5161 18.0891 28.3167 19.0913C28.1174 20.0935 27.6253 21.0142 26.9027 21.7367C26.1802 22.4593 25.2596 22.9514 24.2573 23.1507C23.2551 23.3501 22.2162 23.2478 21.2722 22.8567C20.3281 22.4657 19.5211 21.8034 18.9534 20.9538C18.3857 20.1041 18.0827 19.1052 18.0827 18.0833C18.0827 16.7131 18.627 15.3989 19.596 14.43C20.5649 13.461 21.8791 12.9167 23.2493 12.9167ZM43.916 33.5833C45.4488 33.5833 46.9472 33.1288 48.2217 32.2772C49.4962 31.4256 50.4895 30.2153 51.0761 28.7991C51.6627 27.383 51.8161 25.8247 51.5171 24.3214C51.2181 22.818 50.4799 21.4371 49.3961 20.3533C48.3122 19.2694 46.9313 18.5313 45.428 18.2323C43.9246 17.9332 42.3663 18.0867 40.9502 18.6733C39.5341 19.2599 38.3237 20.2532 37.4721 21.5277C36.6205 22.8021 36.166 24.3005 36.166 25.8333C36.166 27.8888 36.9825 29.86 38.4359 31.3134C39.8893 32.7668 41.8606 33.5833 43.916 33.5833ZM43.916 23.25C44.4269 23.25 44.9264 23.4015 45.3512 23.6854C45.7761 23.9692 46.1072 24.3727 46.3027 24.8447C46.4982 25.3168 46.5494 25.8362 46.4497 26.3373C46.35 26.8384 46.104 27.2987 45.7427 27.66C45.3814 28.0213 44.9211 28.2674 44.42 28.367C43.9189 28.4667 43.3995 28.4156 42.9274 28.22C42.4554 28.0245 42.0519 27.6934 41.768 27.2686C41.4842 26.8437 41.3327 26.3443 41.3327 25.8333C41.3327 25.1482 41.6049 24.4911 42.0893 24.0066C42.5738 23.5222 43.2309 23.25 43.916 23.25ZM43.916 36.1667C41.0532 36.1698 38.2726 37.124 36.011 38.8792C33.4807 36.3588 30.2607 34.644 26.7571 33.9513C23.2535 33.2585 19.6232 33.6187 16.324 34.9864C13.0249 36.3542 10.2046 38.6682 8.21885 41.6367C6.23311 44.6052 5.17085 48.0952 5.16602 51.6667C5.16602 52.3518 5.43819 53.0089 5.92266 53.4934C6.40713 53.9778 7.06421 54.25 7.74935 54.25C8.43449 54.25 9.09157 53.9778 9.57604 53.4934C10.0605 53.0089 10.3327 52.3518 10.3327 51.6667C10.3327 48.241 11.6935 44.9556 14.1159 42.5332C16.5382 40.1109 19.8236 38.75 23.2493 38.75C26.6751 38.75 29.9605 40.1109 32.3828 42.5332C34.8052 44.9556 36.166 48.241 36.166 51.6667C36.166 52.3518 36.4382 53.0089 36.9227 53.4934C37.4071 53.9778 38.0642 54.25 38.7493 54.25C39.4345 54.25 40.0916 53.9778 40.576 53.4934C41.0605 53.0089 41.3327 52.3518 41.3327 51.6667C41.3388 48.6401 40.5743 45.6618 39.111 43.0125C40.2527 42.1104 41.6252 41.5478 43.0716 41.3893C44.518 41.2308 45.9798 41.4826 47.2897 42.116C48.5997 42.7494 49.7049 43.7388 50.4788 44.971C51.2527 46.2031 51.6642 47.6283 51.666 49.0833C51.666 49.7685 51.9382 50.4256 52.4227 50.91C52.9071 51.3945 53.5642 51.6667 54.2493 51.6667C54.9345 51.6667 55.5916 51.3945 56.076 50.91C56.5605 50.4256 56.8327 49.7685 56.8327 49.0833C56.8327 45.6576 55.4718 42.3722 53.0495 39.9499C50.6271 37.5275 47.3417 36.1667 43.916 36.1667Z" fill="#9AA6AC" />
	</g>
	<defs>
		<clipPath id="clip0_7970_167990">
			<rect width="62" height="62" fill="white" />
		</clipPath>
	</defs>
</svg>
