<svg width="49" height="48" viewBox="0 0 49 48" fill="none" xmlns="http://www.w3.org/2000/svg">
<path d="M24.0254 34.6667V33.3333H32.8454C33.0676 33.3333 33.2596 33.2649 33.4214 33.128C33.584 32.9911 33.6654 32.8116 33.6654 32.5893V23.4053C33.6654 20.9076 32.7471 18.8218 30.9107 17.148C29.0734 15.4733 26.8805 14.636 24.332 14.636C21.7836 14.636 19.5907 15.4733 17.7534 17.148C15.9169 18.8218 14.9987 20.9076 14.9987 23.4053V30.9747H14.332C13.7871 30.9747 13.3174 30.7902 12.9227 30.4213C12.5289 30.0533 12.332 29.5973 12.332 29.0533V26.54C12.332 26.1418 12.4614 25.7885 12.72 25.48C12.9796 25.1707 13.2947 24.9196 13.6654 24.7267L13.688 23.088C13.712 21.6969 14.0143 20.408 14.5947 19.2213C15.1751 18.0347 15.9503 17.0022 16.92 16.124C17.8898 15.2458 19.0116 14.5613 20.2854 14.0707C21.5591 13.58 22.908 13.3342 24.332 13.3333C25.756 13.3325 27.104 13.5778 28.376 14.0693C29.648 14.5609 30.7649 15.2445 31.7267 16.12C32.6885 16.9956 33.4596 18.0267 34.04 19.2133C34.6205 20.4 34.9325 21.6889 34.976 23.08L34.9987 24.684C35.3525 24.8502 35.6631 25.0738 35.9307 25.3547C36.1983 25.6347 36.332 25.9711 36.332 26.364V29.252C36.332 29.6449 36.1983 29.9813 35.9307 30.2613C35.6631 30.5413 35.3525 30.7645 34.9987 30.9307V32.5893C34.9987 33.1689 34.7889 33.66 34.3694 34.0627C33.9498 34.4653 33.4418 34.6667 32.8454 34.6667H24.0254ZM20.8454 26.052C20.5698 26.052 20.3298 25.9582 20.1254 25.7707C19.9209 25.584 19.8187 25.3529 19.8187 25.0773C19.8187 24.8018 19.9209 24.5662 20.1254 24.3707C20.3298 24.1751 20.5698 24.0773 20.8454 24.0773C21.1209 24.0773 21.3605 24.1751 21.564 24.3707C21.7676 24.5662 21.8698 24.8018 21.8707 25.0773C21.8716 25.3529 21.7694 25.584 21.564 25.7707C21.3587 25.9573 21.1187 26.0507 20.844 26.0507M27.82 26.0507C27.5445 26.0507 27.3045 25.9573 27.1 25.7707C26.8956 25.584 26.7934 25.3529 26.7934 25.0773C26.7934 24.8018 26.8956 24.5662 27.1 24.3707C27.3045 24.1751 27.5445 24.0773 27.82 24.0773C28.0956 24.0773 28.3351 24.1751 28.5387 24.3707C28.7423 24.5662 28.8445 24.8018 28.8454 25.0773C28.8463 25.3529 28.744 25.584 28.5387 25.7707C28.3334 25.9573 28.0934 26.0507 27.8187 26.0507M17.2894 23.9333C17.1685 21.9369 17.8116 20.2351 19.2187 18.828C20.6249 17.4209 22.352 16.7173 24.4 16.7173C26.1209 16.7173 27.6463 17.2342 28.976 18.268C30.3058 19.3018 31.1174 20.6596 31.4107 22.3413C29.6445 22.3191 28.0054 21.8685 26.4934 20.9893C24.9814 20.1102 23.8214 18.888 23.0134 17.3227C22.6916 18.8613 22.0227 20.2098 21.0067 21.368C19.9898 22.5262 18.7507 23.3813 17.2894 23.9333Z" fill="black"/>
</svg>
