<svg width="40" height="40" viewBox="0 0 40 40" fill="none" xmlns="http://www.w3.org/2000/svg">
<g clip-path="url(#clip0_11065_217531)">
<path fill-rule="evenodd" clip-rule="evenodd" d="M26.2159 24.9394L25.662 24.6174L23.4739 23.3537L20.3994 21.5811L17.3284 23.3537L16.3833 23.9008L15.1369 24.6174L14.5829 24.9394V16.3393L20.3994 12.981L26.2159 16.3393V24.9394ZM28.7987 26.4282V16.0831C28.8049 15.7073 28.7089 15.3368 28.5211 15.0113C28.3334 14.6857 28.0607 14.4171 27.7324 14.2343L20.3994 10L13.0699 14.2343C12.7422 14.4181 12.4699 14.6868 12.2817 15.0121C12.0934 15.3374 11.9962 15.7073 12.0001 16.0831V28.0035H14.4444L15.8466 27.1933L16.8091 26.6394L19.1253 25.3029L20.3994 24.5655L20.6625 24.7178L23.9932 26.6394L24.9522 27.1933L26.3544 28.0035H28.7987V26.4282Z" fill="white"/>
<path fill-rule="evenodd" clip-rule="evenodd" d="M20.6623 19.8223L22.8816 21.1067L24.7062 20.0542L25.4644 19.6145L23.4736 18.4651L20.3992 16.689L17.3282 18.4651L16.383 19.0086L15.334 19.6145L16.0922 20.0542L17.9168 21.1067L19.1251 20.4074L20.3992 19.6699L20.6623 19.8223Z" fill="white"/>
<path fill-rule="evenodd" clip-rule="evenodd" d="M20.7385 18.4651L22.9612 19.7461L24.7823 18.6936L25.544 18.2539L23.5498 17.1045L20.4754 15.3284L17.4044 17.1045L16.4592 17.6515L15.4102 18.2539L16.1718 18.6936L17.993 19.7461L19.2013 19.0502L20.4754 18.3128L20.7385 18.4651Z" fill="white"/>
</g>
<defs>
<clipPath id="clip0_11065_217531">
<rect width="16.7986" height="18" fill="white" transform="translate(12 10)"/>
</clipPath>
</defs>
</svg>
