<svg width="24" height="24" viewBox="0 0 24 24" fill="none" xmlns="http://www.w3.org/2000/svg">
<path fill-rule="evenodd" clip-rule="evenodd" d="M11.5089 20H7.60011C5.64491 20 4.05371 18.4088 4.05371 16.452V7.5488C4.05371 5.592 5.64491 4 7.60011 4H11.5001C13.4569 4 15.0489 5.592 15.0489 7.5488V8.2944C15.0489 8.6256 14.7801 8.8944 14.4489 8.8944C14.1177 8.8944 13.8489 8.6256 13.8489 8.2944V7.5488C13.8489 6.2528 12.7953 5.2 11.5001 5.2H7.60011C6.30651 5.2 5.25371 6.2528 5.25371 7.5488V16.452C5.25371 17.7472 6.30651 18.8 7.60011 18.8H11.5089C12.7985 18.8 13.8489 17.7504 13.8489 16.4608V15.7064C13.8489 15.3752 14.1177 15.1064 14.4489 15.1064C14.7801 15.1064 15.0489 15.3752 15.0489 15.7064V16.4608C15.0489 18.4128 13.4601 20 11.5089 20Z" fill="white"/>
<mask id="mask0_8557_86693" style="mask-type:luminance" maskUnits="userSpaceOnUse" x="9" y="11" width="12" height="2">
<path fill-rule="evenodd" clip-rule="evenodd" d="M9.65039 11.4004H20.4831V12.6004H9.65039V11.4004Z" fill="white"/>
</mask>
<g mask="url(#mask0_8557_86693)">
<path fill-rule="evenodd" clip-rule="evenodd" d="M19.8832 12.6004H10.2504C9.91919 12.6004 9.65039 12.3316 9.65039 12.0004C9.65039 11.6692 9.91919 11.4004 10.2504 11.4004H19.8832C20.2144 11.4004 20.4832 11.6692 20.4832 12.0004C20.4832 12.3316 20.2144 12.6004 19.8832 12.6004Z" fill="white"/>
</g>
<mask id="mask1_8557_86693" style="mask-type:luminance" maskUnits="userSpaceOnUse" x="16" y="9" width="5" height="6">
<path fill-rule="evenodd" clip-rule="evenodd" d="M16.9414 9.06836H20.4833V14.933H16.9414V9.06836Z" fill="white"/>
</mask>
<g mask="url(#mask1_8557_86693)">
<path fill-rule="evenodd" clip-rule="evenodd" d="M17.5412 14.933C17.3876 14.933 17.2332 14.8746 17.1164 14.7562C16.8828 14.521 16.8836 14.1418 17.118 13.9082L19.0332 12.0002L17.118 10.093C16.8836 9.85936 16.882 9.48016 17.1164 9.24496C17.35 9.00976 17.7292 9.00976 17.9644 9.24336L20.3068 11.5754C20.4204 11.6874 20.4836 11.841 20.4836 12.0002C20.4836 12.1594 20.4204 12.313 20.3068 12.425L17.9644 14.7578C17.8476 14.8746 17.694 14.933 17.5412 14.933Z" fill="white"/>
</g>
</svg>
