<svg width="162" height="33" viewBox="0 0 162 33" fill="none" xmlns="http://www.w3.org/2000/svg">
<path fill-rule="evenodd" clip-rule="evenodd" d="M26.1854 27.3837L25.165 26.7935L21.1346 24.4771L15.4715 21.2279L9.81487 24.4771L8.07387 25.4798L5.77804 26.7935L4.75768 27.3837V11.6198L15.4715 5.46404L26.1854 11.6198V27.3837ZM30.9429 30.1125V11.1502C30.9542 10.4613 30.7775 9.78234 30.4316 9.18555C30.0856 8.58876 29.5835 8.09654 28.9787 7.76135L15.4715 0L1.9708 7.76135C1.36703 8.09834 0.865504 8.59078 0.518793 9.18703C0.172082 9.78327 -0.00703879 10.4614 0.00021169 11.1502V33H4.50258L7.08539 31.515L8.85828 30.4996L13.1247 28.05L15.4715 26.6983L15.9562 26.9775L22.0912 30.4996L23.8577 31.515L26.4405 33H30.9429V30.1125Z" fill="white"/>
<path fill-rule="evenodd" clip-rule="evenodd" d="M15.9563 18.003L20.0441 20.3575L23.4049 18.4282L24.8016 17.6223L21.1346 15.5153L15.4716 12.2598L9.81493 15.5153L8.07392 16.5117L6.1416 17.6223L7.53823 18.4282L10.8991 20.3575L13.1247 19.0755L15.4716 17.7238L15.9563 18.003Z" fill="#008080"/>
<path fill-rule="evenodd" clip-rule="evenodd" d="M16.0969 15.5172L20.1911 17.8653L23.5456 15.936L24.9486 15.1301L21.2753 13.0232L15.6122 9.76758L9.95555 13.0232L8.21455 14.0258L6.28223 15.1301L7.68523 15.936L11.0397 17.8653L13.2654 16.5897L15.6122 15.238L16.0969 15.5172Z" fill="white"/>
<path d="M41.9443 26.2473V6.77731H47.0462L47.1546 10.4962L46.3766 10.6421C46.6445 10.0165 47.0057 9.43454 47.4479 8.91597C47.891 8.40482 48.4117 7.96585 48.9913 7.615C49.5896 7.24775 50.2325 6.95773 50.9044 6.75193C51.5493 6.5442 52.2227 6.43716 52.9005 6.43462C53.835 6.42045 54.7637 6.58415 55.6364 6.91693C56.4447 7.22835 57.1586 7.74202 57.709 8.40827C58.3331 9.19587 58.7869 10.1033 59.0419 11.0737L58.2256 11.0038L58.487 10.4137C58.8099 9.82073 59.2205 9.27949 59.7051 8.80808C60.2044 8.31737 60.7636 7.89096 61.3696 7.53885C61.9723 7.18959 62.6145 6.91266 63.2828 6.71385C63.9173 6.5202 64.5769 6.41972 65.2406 6.41558C66.5747 6.36442 67.8975 6.67596 69.067 7.31673C70.1048 7.94611 70.9051 8.89859 71.3437 10.0265C71.8896 11.4428 72.1475 12.9527 72.1026 14.4688V26.2473H66.8349V14.8242C66.8612 14.0812 66.7354 13.3406 66.465 12.6475C66.2518 12.1223 65.8767 11.678 65.3937 11.3783C64.8394 11.0776 64.2132 10.9328 63.5825 10.9594C63.0471 10.9526 62.5151 11.0452 62.0137 11.2323C61.5419 11.4052 61.1086 11.6682 60.7382 12.0065C60.4006 12.3309 60.1317 12.7194 59.9475 13.1488C59.7384 13.6032 59.6276 14.0961 59.6222 14.5958V26.2473H54.3737V14.7671C54.3927 14.0558 54.2601 13.3486 53.9847 12.6919C53.7588 12.1586 53.3794 11.7037 52.8942 11.3846C52.3669 11.0783 51.7634 10.9265 51.1532 10.9467C50.6177 10.94 50.0857 11.0325 49.5843 11.2196C49.1108 11.3888 48.6768 11.6523 48.3089 11.9938C47.9633 12.3271 47.6822 12.7207 47.4798 13.1552C47.2764 13.6078 47.1783 14.1002 47.1929 14.5958V26.2473H41.9443Z" fill="white"/>
<path d="M84.4043 26.6164C82.8363 26.6354 81.3002 26.1746 80.004 25.2964C78.672 24.3806 77.6019 23.1364 76.8983 21.6854C76.1086 20.0584 75.7153 18.2691 75.7503 16.4625C75.7137 14.6578 76.114 12.8708 76.9174 11.2523C77.6463 9.80324 78.7461 8.5709 80.106 7.67945C81.4614 6.81628 83.0443 6.37441 84.6531 6.41022C85.5527 6.40022 86.4475 6.54183 87.2996 6.82907C88.0626 7.09393 88.7743 7.48671 89.4041 7.99041C90.0023 8.47181 90.5209 9.04356 90.9411 9.68483C91.3554 10.3025 91.6576 10.9877 91.8339 11.7093L90.7242 11.5252V6.7783H95.9409V26.2483H90.6222V21.5775L91.802 21.4633C91.5985 22.1647 91.2749 22.826 90.8454 23.4179C90.3858 24.0476 89.8283 24.6003 89.1937 25.0552C88.5213 25.5425 87.7798 25.9275 86.9935 26.1975C86.1601 26.4803 85.2849 26.6219 84.4043 26.6164ZM85.852 22.0916C86.7644 22.1101 87.663 21.8678 88.4412 21.3935C89.1891 20.9131 89.7842 20.2307 90.1567 19.4262C90.5909 18.4987 90.8089 17.4856 90.7944 16.4625C90.8078 15.4559 90.5897 14.4595 90.1567 13.5496C89.777 12.7497 89.1835 12.0691 88.4412 11.5823C87.6673 11.0962 86.767 10.8469 85.852 10.8652C84.9488 10.8453 84.0603 11.0951 83.3011 11.5823C82.5634 12.0744 81.9712 12.7536 81.5856 13.5496C81.1468 14.4575 80.9284 15.4553 80.9478 16.4625C80.9272 17.4862 81.1455 18.5007 81.5856 19.4262C81.9642 20.2268 82.5579 20.9077 83.3011 21.3935C84.0646 21.8692 84.9514 22.1118 85.852 22.0916Z" fill="white"/>
<path d="M101.164 26.2473V6.77732H106.196L106.342 10.7564L105.303 11.1942C105.591 10.2866 106.091 9.45999 106.763 8.78271C107.493 8.04305 108.359 7.45048 109.314 7.03751C110.292 6.60606 111.351 6.3896 112.42 6.4029C113.717 6.35729 115.001 6.66213 116.138 7.28501C117.162 7.90544 117.954 8.84121 118.396 9.9504C118.936 11.3525 119.192 12.8472 119.148 14.3483V26.2473H113.9V14.7291C113.924 13.9758 113.798 13.2253 113.53 12.5206C113.314 11.9699 112.915 11.5088 112.401 11.2133C111.826 10.918 111.176 10.7966 110.532 10.8642C109.972 10.8608 109.416 10.9531 108.887 11.1371C108.412 11.3133 107.979 11.5831 107.612 11.9304C107.257 12.2671 106.969 12.6676 106.763 13.1108C106.55 13.5589 106.441 14.0491 106.444 14.545V26.2473H101.196H101.164Z" fill="white"/>
<path d="M132.648 26.6149C130.909 26.6495 129.194 26.2078 127.691 25.3382C126.187 24.4686 124.952 23.2045 124.122 21.684C123.254 20.092 122.815 18.3037 122.846 16.4928C122.82 14.6906 123.259 12.9119 124.122 11.3271C124.947 9.80065 126.18 8.53069 127.685 7.65724C129.189 6.7838 130.907 6.34078 132.648 6.37706C134.3 6.35694 135.938 6.6812 137.457 7.32899C138.812 7.89109 139.988 8.80774 140.862 9.98168L137.973 13.4403C137.615 12.9557 137.185 12.5278 136.698 12.1711C136.184 11.7935 135.62 11.4901 135.021 11.2699C134.422 11.0504 133.79 10.9387 133.152 10.9399C132.207 10.9195 131.275 11.1683 130.467 11.6571C129.691 12.1378 129.059 12.8173 128.637 13.6244C128.189 14.5134 127.97 15.4989 127.999 16.4928C127.979 17.4748 128.214 18.4453 128.682 19.3105C129.123 20.1211 129.766 20.8052 130.55 21.2969C131.343 21.803 132.268 22.0656 133.209 22.0521C133.826 22.0573 134.439 21.9652 135.027 21.7792C135.598 21.5854 136.134 21.3027 136.615 20.9415C137.134 20.5631 137.599 20.117 137.999 19.6151L140.849 23.0801C139.917 24.1961 138.723 25.0677 137.374 25.6186C135.887 26.2783 134.276 26.6178 132.648 26.6149Z" fill="white"/>
<path d="M153.502 26.6159C151.574 26.6698 149.664 26.2329 147.954 25.3467C146.417 24.533 145.137 23.3117 144.255 21.8182C143.347 20.2536 142.886 18.4717 142.922 16.6652C142.904 15.2559 143.155 13.8561 143.662 12.5402C144.127 11.3282 144.832 10.2213 145.734 9.28458C146.635 8.35723 147.721 7.62859 148.923 7.14593C150.185 6.63751 151.535 6.38299 152.896 6.39708C154.165 6.38274 155.424 6.62678 156.595 7.1142C157.707 7.57501 158.709 8.26494 159.535 9.13862C160.375 10.0233 161.025 11.0682 161.448 12.2102C161.876 13.4453 162.058 14.7515 161.984 16.0559V17.6742H146.251L145.403 14.4694H157.647L157.054 15.1357V14.3234C157.015 13.6752 156.794 13.0509 156.416 12.5211C156.047 11.9803 155.544 11.5432 154.956 11.2519C154.334 10.9521 153.651 10.8 152.96 10.8077C152.002 10.7783 151.052 10.9969 150.205 11.4423C149.449 11.8587 148.846 12.5031 148.483 13.2827C148.063 14.2066 147.86 15.2137 147.89 16.2273C147.863 17.2941 148.125 18.3484 148.649 19.2798C149.152 20.1412 149.897 20.8381 150.791 21.2852C151.809 21.7865 152.934 22.0327 154.069 22.0023C154.876 22.0119 155.677 21.8764 156.435 21.6025C157.269 21.2602 158.042 20.7867 158.725 20.2L161.244 23.6967C160.531 24.3349 159.735 24.8749 158.878 25.3023C158.028 25.7217 157.134 26.0473 156.212 26.2732C155.326 26.496 154.416 26.6111 153.502 26.6159Z" fill="white"/>
</svg>
