<svg width="23" height="24" viewBox="0 0 23 24" fill="none" xmlns="http://www.w3.org/2000/svg">
<path d="M17.0076 23.9999L15.6153 22.6076L17.7152 20.4742L15.6153 18.3742L17.0076 16.9486L19.1409 19.0819L21.2409 16.9486L22.6666 18.3742L20.5332 20.4742L22.6666 22.6076L21.2409 23.9999L19.1409 21.8999L17.0076 23.9999ZM3.66665 21.9999C4.12998 21.9999 4.52353 21.8379 4.84731 21.5139C5.17131 21.1901 5.33331 20.7966 5.33331 20.3332C5.33331 19.8699 5.17131 19.4763 4.84731 19.1526C4.52353 18.8286 4.12998 18.6666 3.66665 18.6666C3.20332 18.6666 2.80976 18.8286 2.48599 19.1526C2.16199 19.4763 1.99999 19.8699 1.99999 20.3332C1.99999 20.7966 2.16199 21.1901 2.48599 21.5139C2.80976 21.8379 3.20332 21.9999 3.66665 21.9999ZM3.66665 23.9999C2.64954 23.9999 1.78421 23.643 1.07066 22.9292C0.356887 22.2157 0 21.3503 0 20.3332C0 19.3161 0.356887 18.4508 1.07066 17.7372C1.78421 17.0235 2.64954 16.6666 3.66665 16.6666C4.47176 16.6666 5.19609 16.9029 5.83964 17.3756C6.48319 17.8482 6.92208 18.4735 7.1563 19.2512C8.10851 19.0837 8.8974 18.6316 9.52295 17.8949C10.1487 17.158 10.4616 16.3041 10.4616 15.3333V10.1923C10.4616 8.44185 11.0795 6.94874 12.3153 5.71297C13.5513 4.47698 15.0445 3.85898 16.7949 3.85898H18.8152L16.3819 1.42566L17.8076 0L22.6666 4.85898L17.8076 9.71795L16.3819 8.32563L18.8026 5.85897H16.7949C15.5898 5.85897 14.5663 6.27986 13.7243 7.12163C12.8825 7.96363 12.4616 8.98718 12.4616 10.1923V15.3333C12.4616 16.8444 11.9586 18.161 10.9526 19.2832C9.94662 20.4055 8.69485 21.0682 7.1973 21.2716C6.99063 22.0767 6.55863 22.7327 5.9013 23.2395C5.24397 23.7464 4.49909 23.9999 3.66665 23.9999ZM1.39233 8.38462L0 6.9923L2.09999 4.85898L0 2.75899L1.39233 1.33333L3.52565 3.46665L5.62564 1.33333L7.0513 2.75899L4.91798 4.85898L7.0513 6.9923L5.62564 8.38462L3.52565 6.28463L1.39233 8.38462Z" fill="#008080"/>
</svg>
