<svg width="23" height="23" viewBox="0 0 23 23" fill="none" xmlns="http://www.w3.org/2000/svg">
<path d="M16.7138 18.4095L15.895 17.5895C15.7867 17.482 15.6588 17.4283 15.5113 17.4283C15.3629 17.4283 15.235 17.482 15.1275 17.5895C15.02 17.6962 14.9662 17.8224 14.9662 17.9683C14.9662 18.1141 15.02 18.2408 15.1275 18.3483L16.2025 19.4233C16.3575 19.5791 16.5321 19.657 16.7262 19.657C16.9204 19.657 17.095 19.5791 17.25 19.4233L19.8725 16.8395C19.98 16.732 20.0379 16.6083 20.0463 16.4683C20.0546 16.3274 19.9967 16.1954 19.8725 16.072C19.765 15.9645 19.6333 15.9108 19.4775 15.9108C19.3217 15.9108 19.1896 15.9649 19.0812 16.0733L16.7138 18.4095ZM4.0875 6.08828H15.915C16.0925 6.08828 16.2408 6.0287 16.36 5.90953C16.4792 5.79036 16.5392 5.64161 16.54 5.46328C16.54 5.26911 16.48 5.11661 16.36 5.00578C16.2408 4.89411 16.0925 4.83828 15.915 4.83828H4.08625C3.90875 4.83828 3.76 4.89786 3.64 5.01703C3.52 5.1362 3.46042 5.28495 3.46125 5.46328C3.46208 5.64161 3.52167 5.79036 3.64 5.90953C3.75833 6.0287 3.90833 6.08828 4.0875 6.08828ZM17.5 22.8208C16.1075 22.8208 14.9263 22.3354 13.9563 21.3645C12.9854 20.3945 12.5 19.2133 12.5 17.8208C12.5 16.4283 12.9854 15.2466 13.9563 14.2758C14.9271 13.3049 16.1083 12.8199 17.5 12.8208C18.8917 12.8216 20.0733 13.3066 21.045 14.2758C22.0167 15.2449 22.5017 16.4266 22.5 17.8208C22.5 19.2124 22.015 20.3937 21.045 21.3645C20.0733 22.3354 18.8917 22.8208 17.5 22.8208ZM0 2.19578C0 1.63578 0.196667 1.15911 0.59 0.765781C0.983333 0.372448 1.46 0.175781 2.02 0.175781H17.9813C18.5396 0.175781 19.0158 0.372448 19.41 0.765781C19.8033 1.15911 20 1.63578 20 2.19578V8.84203C20 9.01953 19.9404 9.16828 19.8213 9.28828C19.7021 9.40828 19.5533 9.46786 19.375 9.46703C19.1967 9.4662 19.0479 9.40661 18.9287 9.28828C18.8096 9.16995 18.75 9.0212 18.75 8.84203V2.19578C18.75 2.00328 18.67 1.82661 18.51 1.66578C18.35 1.50495 18.1733 1.42495 17.98 1.42578H2.02C1.8275 1.42578 1.65083 1.50578 1.49 1.66578C1.32917 1.82578 1.24917 2.00245 1.25 2.19578V18.9883H9.18C9.20583 19.1566 9.23625 19.3249 9.27125 19.4933C9.30708 19.6616 9.35292 19.8274 9.40875 19.9908C9.46458 20.1399 9.42708 20.262 9.29625 20.357C9.16458 20.4529 9.03958 20.457 8.92125 20.3695L8.61 20.157C8.5175 20.0962 8.42 20.0658 8.3175 20.0658C8.215 20.0658 8.11708 20.0962 8.02375 20.157L6.9275 20.9158C6.835 20.9774 6.7375 21.0083 6.635 21.0083C6.5325 21.0083 6.43458 20.9774 6.34125 20.9158L5.245 20.157C5.15167 20.0962 5.05375 20.0658 4.95125 20.0658C4.84875 20.0658 4.75125 20.0962 4.65875 20.157L3.5625 20.9158C3.47 20.9774 3.3725 21.0083 3.27 21.0083C3.1675 21.0083 3.06958 20.9774 2.97625 20.9158L1.88 20.157C1.78667 20.0962 1.68875 20.0658 1.58625 20.0658C1.48375 20.0658 1.38625 20.0962 1.29375 20.157L0 21.1608V2.19578ZM4.0875 15.512H8.93C9.10833 15.512 9.25708 15.4524 9.37625 15.3333C9.49542 15.2141 9.555 15.0654 9.555 14.887C9.555 14.7087 9.49542 14.5604 9.37625 14.442C9.25708 14.3237 9.10833 14.2637 8.93 14.262H4.0875C3.91 14.262 3.76125 14.322 3.64125 14.442C3.52125 14.562 3.46167 14.7104 3.4625 14.887C3.46333 15.0637 3.52292 15.2124 3.64125 15.3333C3.75958 15.4541 3.90833 15.5137 4.0875 15.512ZM4.0875 10.8008H13.0925C13.27 10.8008 13.4188 10.7412 13.5388 10.622C13.6588 10.5029 13.7183 10.3541 13.7175 10.1758C13.7167 9.99745 13.6571 9.8487 13.5388 9.72953C13.4204 9.61036 13.2717 9.55078 13.0925 9.55078H4.08625C3.90875 9.55078 3.76 9.61036 3.64 9.72953C3.52 9.8487 3.46083 9.99745 3.4625 10.1758C3.46417 10.3541 3.52375 10.5029 3.64125 10.622C3.75875 10.7412 3.9075 10.8008 4.0875 10.8008Z" fill="#9AA6AC"/>
</svg>
