
<svg width="16" height="12" viewBox="0 0 16 12" fill="none" xmlns="http://www.w3.org/2000/svg">
<path d="M9.43343 2.92501H0.983378C0.810986 2.92501 0.645655 2.85653 0.523756 2.73463C0.401856 2.61273 0.333374 2.4474 0.333374 2.275C0.333374 2.10261 0.401856 1.93728 0.523756 1.81538C0.645655 1.69348 0.810986 1.625 0.983378 1.625H9.43343C9.60582 1.625 9.77115 1.69348 9.89305 1.81538C10.015 1.93728 10.0834 2.10261 10.0834 2.275C10.0834 2.4474 10.015 2.61273 9.89305 2.73463C9.77115 2.85653 9.60582 2.92501 9.43343 2.92501ZM15.2835 2.92501H12.6835C12.5111 2.92501 12.3457 2.85653 12.2238 2.73463C12.1019 2.61273 12.0334 2.4474 12.0334 2.275C12.0334 2.10261 12.1019 1.93728 12.2238 1.81538C12.3457 1.69348 12.5111 1.625 12.6835 1.625H15.2835C15.4559 1.625 15.6212 1.69348 15.7431 1.81538C15.865 1.93728 15.9335 2.10261 15.9335 2.275C15.9335 2.4474 15.865 2.61273 15.7431 2.73463C15.6212 2.85653 15.4559 2.92501 15.2835 2.92501Z" fill="#9AA6AC"/>
<path d="M11.0584 4.55003C10.6085 4.55003 10.1686 4.4166 9.79451 4.16662C9.42039 3.91664 9.12879 3.56133 8.9566 3.14563C8.78441 2.72992 8.73936 2.27249 8.82714 1.83118C8.91492 1.38987 9.1316 0.984504 9.44976 0.666337C9.76793 0.348171 10.1733 0.131497 10.6146 0.0437148C11.0559 -0.0440671 11.5133 0.000985725 11.9291 0.173176C12.3448 0.345367 12.7001 0.636961 12.95 1.01108C13.2 1.38521 13.3335 1.82506 13.3335 2.27502C13.3335 2.87839 13.0938 3.45704 12.6671 3.88369C12.2405 4.31034 11.6618 4.55003 11.0584 4.55003ZM11.0584 1.30001C10.8656 1.30001 10.6771 1.35719 10.5168 1.46433C10.3564 1.57146 10.2315 1.72374 10.1577 1.9019C10.0839 2.08006 10.0645 2.2761 10.1022 2.46523C10.1398 2.65436 10.2327 2.82809 10.369 2.96445C10.5054 3.10081 10.6791 3.19367 10.8682 3.23129C11.0574 3.26891 11.2534 3.2496 11.4316 3.1758C11.6097 3.10201 11.762 2.97704 11.8691 2.8167C11.9763 2.65636 12.0334 2.46785 12.0334 2.27502C12.0334 2.01643 11.9307 1.76843 11.7479 1.58558C11.565 1.40273 11.317 1.30001 11.0584 1.30001ZM15.2835 9.42506H6.83342C6.66102 9.42506 6.49569 9.35658 6.37379 9.23468C6.25189 9.11278 6.18341 8.94745 6.18341 8.77505C6.18341 8.60266 6.25189 8.43733 6.37379 8.31543C6.49569 8.19353 6.66102 8.12505 6.83342 8.12505H15.2835C15.4559 8.12505 15.6212 8.19353 15.7431 8.31543C15.865 8.43733 15.9335 8.60266 15.9335 8.77505C15.9335 8.94745 15.865 9.11278 15.7431 9.23468C15.6212 9.35658 15.4559 9.42506 15.2835 9.42506ZM3.58339 9.42506H0.983378C0.810986 9.42506 0.645655 9.35658 0.523756 9.23468C0.401856 9.11278 0.333374 8.94745 0.333374 8.77505C0.333374 8.60266 0.401856 8.43733 0.523756 8.31543C0.645655 8.19353 0.810986 8.12505 0.983378 8.12505H3.58339C3.75579 8.12505 3.92112 8.19353 4.04302 8.31543C4.16492 8.43733 4.2334 8.60266 4.2334 8.77505C4.2334 8.94745 4.16492 9.11278 4.04302 9.23468C3.92112 9.35658 3.75579 9.42506 3.58339 9.42506Z" fill="#9AA6AC"/>
<path d="M5.20855 11.05C4.75859 11.05 4.31874 10.9166 3.94462 10.6666C3.57049 10.4166 3.2789 10.0613 3.10671 9.64563C2.93452 9.22992 2.88947 8.77249 2.97725 8.33118C3.06503 7.88987 3.2817 7.4845 3.59987 7.16634C3.91804 6.84817 4.3234 6.6315 4.76471 6.54371C5.20602 6.45593 5.66345 6.50099 6.07916 6.67318C6.49486 6.84537 6.85017 7.13696 7.10015 7.51108C7.35013 7.88521 7.48356 8.32506 7.48356 8.77502C7.48356 9.37839 7.24387 9.95705 6.81723 10.3837C6.39058 10.8103 5.81192 11.05 5.20855 11.05ZM5.20855 7.80001C5.01571 7.80001 4.8272 7.85719 4.66686 7.96433C4.50652 8.07146 4.38156 8.22374 4.30776 8.4019C4.23396 8.58006 4.21466 8.7761 4.25228 8.96523C4.2899 9.15436 4.38276 9.32809 4.51911 9.46445C4.65547 9.60081 4.8292 9.69367 5.01833 9.73129C5.20747 9.76891 5.40351 9.7496 5.58167 9.6758C5.75983 9.60201 5.9121 9.47704 6.01924 9.3167C6.12637 9.15636 6.18355 8.96785 6.18355 8.77502C6.18355 8.51643 6.08083 8.26843 5.89798 8.08558C5.71513 7.90273 5.46714 7.80001 5.20855 7.80001Z" fill="#9AA6AC"/>
</svg>
