<svg width="42" height="42" viewBox="0 0 42 42" fill="none" xmlns="http://www.w3.org/2000/svg">
<path d="M22.2212 21.1723C23.7192 21.1723 24.9337 22.3867 24.9337 23.8848L24.9322 25.2381C25.1183 28.5592 22.5603 30.2154 17.8168 30.2154C13.0886 30.2154 10.4746 28.5808 10.4746 25.2855V23.8848C10.4746 22.3867 11.689 21.1723 13.1871 21.1723H22.2212ZM29.4556 21.1723C30.9536 21.1723 32.1681 22.3867 32.1681 23.8848L32.1667 24.837C32.3302 27.8161 30.07 29.3098 25.9387 29.3098C25.3779 29.3098 24.8507 29.2824 24.3584 29.2278C25.3289 28.3315 25.8481 27.1153 25.8463 25.5784L25.835 25.1875L25.8378 23.8848C25.8378 22.8042 25.3639 21.8342 24.6126 21.1715L29.4556 21.1723ZM17.7079 10.3223C20.2051 10.3223 22.2295 12.3466 22.2295 14.8438C22.2295 17.341 20.2051 19.3654 17.7079 19.3654C15.2108 19.3654 13.1864 17.341 13.1864 14.8438C13.1864 12.3466 15.2108 10.3223 17.7079 10.3223ZM26.7496 12.1306C28.747 12.1306 30.3663 13.7498 30.3663 15.7473C30.3663 17.7447 28.747 19.3639 26.7496 19.3639C24.7522 19.3639 23.1329 17.7447 23.1329 15.7473C23.1329 13.7498 24.7522 12.1306 26.7496 12.1306Z" fill="#119C2B"/>
</svg>
