<svg width="42" height="42" viewBox="0 0 42 42" fill="none" xmlns="http://www.w3.org/2000/svg">
<path fill-rule="evenodd" clip-rule="evenodd" d="M34.5418 21.0002C34.5418 24.5916 33.1151 28.036 30.5756 30.5756C28.036 33.1151 24.5916 34.5418 21.0002 34.5418C17.4087 34.5418 13.9643 33.1151 11.4248 30.5756C8.8852 28.036 7.4585 24.5916 7.4585 21.0002C7.4585 17.4087 8.8852 13.9643 11.4248 11.4248C13.9643 8.8852 17.4087 7.4585 21.0002 7.4585C24.5916 7.4585 28.036 8.8852 30.5756 11.4248C33.1151 13.9643 34.5418 17.4087 34.5418 21.0002ZM37.6668 21.0002C37.6668 25.4204 35.9109 29.6597 32.7853 32.7853C29.6597 35.9109 25.4204 37.6668 21.0002 37.6668C16.5799 37.6668 12.3407 35.9109 9.21505 32.7853C6.08944 29.6597 4.3335 25.4204 4.3335 21.0002C4.3335 16.5799 6.08944 12.3407 9.21505 9.21505C12.3407 6.08944 16.5799 4.3335 21.0002 4.3335C25.4204 4.3335 29.6597 6.08944 32.7853 9.21505C35.9109 12.3407 37.6668 16.5799 37.6668 21.0002ZM21.0002 25.6877C21.0002 26.5165 20.6709 27.3113 20.0849 27.8974C19.4988 28.4834 18.704 28.8127 17.8752 28.8127C17.0464 28.8127 16.2515 28.4834 15.6655 27.8974C15.0794 27.3113 14.7502 26.5165 14.7502 25.6877C14.7502 24.8589 15.0794 24.064 15.6655 23.478C16.2515 22.8919 17.0464 22.5627 17.8752 22.5627C18.704 22.5627 19.4988 22.8919 20.0849 23.478C20.6709 24.064 21.0002 24.8589 21.0002 25.6877ZM13.7418 21.0002C12.996 21.6582 12.418 22.4848 12.0558 23.4112C11.6937 24.3376 11.5579 25.3371 11.6597 26.3265C11.7615 27.3159 12.098 28.2668 12.6412 29.1C13.1844 29.9332 13.9186 30.6248 14.7829 31.1172C15.6471 31.6096 16.6164 31.8886 17.6101 31.931C18.6039 31.9735 19.5934 31.7782 20.4965 31.3612C21.3996 30.9443 22.1901 30.3179 22.8024 29.534C23.4147 28.7502 23.831 27.8315 24.0168 26.8543C24.9623 27.2078 25.9793 27.3271 26.9809 27.2019C27.9824 27.0767 28.9388 26.7108 29.7682 26.1355C30.5975 25.5602 31.2752 24.7925 31.7432 23.8982C32.2112 23.0039 32.4557 22.0095 32.4557 21.0002C32.4557 19.9908 32.2112 18.9964 31.7432 18.1021C31.2752 17.2078 30.5975 16.4402 29.7682 15.8648C28.9388 15.2895 27.9824 14.9236 26.9809 14.7984C25.9793 14.6732 24.9623 14.7925 24.0168 15.146C23.831 14.1688 23.4147 13.2502 22.8024 12.4663C22.1901 11.6824 21.3996 11.056 20.4965 10.6391C19.5934 10.2222 18.6039 10.0268 17.6101 10.0693C16.6164 10.1117 15.6471 10.3907 14.7829 10.8831C13.9186 11.3755 13.1844 12.0671 12.6412 12.9003C12.098 13.7336 11.7615 14.6844 11.6597 15.6738C11.5579 16.6633 11.6937 17.6627 12.0558 18.5891C12.418 19.5155 12.996 20.3421 13.7418 21.0002ZM17.8752 19.4377C18.704 19.4377 19.4988 19.1084 20.0849 18.5224C20.6709 17.9363 21.0002 17.1415 21.0002 16.3127C21.0002 15.4839 20.6709 14.689 20.0849 14.103C19.4988 13.5169 18.704 13.1877 17.8752 13.1877C17.0464 13.1877 16.2515 13.5169 15.6655 14.103C15.0794 14.689 14.7502 15.4839 14.7502 16.3127C14.7502 17.1415 15.0794 17.9363 15.6655 18.5224C16.2515 19.1084 17.0464 19.4377 17.8752 19.4377ZM26.2085 24.1252C27.0373 24.1252 27.8322 23.7959 28.4182 23.2099C29.0043 22.6238 29.3335 21.829 29.3335 21.0002C29.3335 20.1714 29.0043 19.3765 28.4182 18.7905C27.8322 18.2044 27.0373 17.8752 26.2085 17.8752C25.3797 17.8752 24.5848 18.2044 23.9988 18.7905C23.4127 19.3765 23.0835 20.1714 23.0835 21.0002C23.0835 21.829 23.4127 22.6238 23.9988 23.2099C24.5848 23.7959 25.3797 24.1252 26.2085 24.1252Z" fill="#008080"/>
</svg>
