<svg width="43" height="43" viewBox="0 0 43 43" fill="none" xmlns="http://www.w3.org/2000/svg">
<g clip-path="url(#clip0_15726_88185)">
<path d="M17.7109 26.5018C17.2595 26.5018 16.8759 26.3438 16.5599 26.0278C16.2439 25.7119 16.0859 25.3282 16.0859 24.8768C16.0859 24.4254 16.2439 24.0417 16.5599 23.7257C16.8759 23.4098 17.2595 23.2518 17.7109 23.2518C18.1623 23.2518 18.546 23.4098 18.862 23.7257C19.178 24.0417 19.3359 24.4254 19.3359 24.8768C19.3359 25.3282 19.178 25.7119 18.862 26.0278C18.546 26.3438 18.1623 26.5018 17.7109 26.5018ZM25.7109 26.5018C25.2595 26.5018 24.8759 26.3438 24.5599 26.0278C24.2439 25.7119 24.0859 25.3282 24.0859 24.8768C24.0859 24.4254 24.2439 24.0417 24.5599 23.7257C24.8759 23.4098 25.2595 23.2518 25.7109 23.2518C26.1623 23.2518 26.546 23.4098 26.862 23.7257C27.178 24.0417 27.3359 24.4254 27.3359 24.8768C27.3359 25.3282 27.178 25.7119 26.862 26.0278C26.546 26.3438 26.1623 26.5018 25.7109 26.5018ZM21.7109 20.1685C21.2595 20.1685 20.8759 20.0105 20.5599 19.6945C20.2439 19.3785 20.0859 18.9948 20.0859 18.5435C20.0859 18.0921 20.2439 17.7084 20.5599 17.3924C20.8759 17.0764 21.2595 16.9185 21.7109 16.9185C22.1623 16.9185 22.546 17.0764 22.862 17.3924C23.178 17.7084 23.3359 18.0921 23.3359 18.5435C23.3359 18.9948 23.178 19.3785 22.862 19.6945C22.546 20.0105 22.1623 20.1685 21.7109 20.1685Z" fill="#008080"/>
</g>
<defs>
<clipPath id="clip0_15726_88185">
<rect width="41.3333" height="41.3333" fill="white" transform="translate(0.746094 0.833496)"/>
</clipPath>
</defs>
</svg>
