<svg width="20" height="26" viewBox="0 0 20 26" fill="none" xmlns="http://www.w3.org/2000/svg">
<path d="M18.2 9.19303L17.8 21.3C17.766 22.3369 17.3292 23.3197 16.5823 24.0398C15.8355 24.76 14.8375 25.1607 13.8 25.157H6.20003C5.16325 25.1607 4.16578 24.7605 3.41907 24.0413C2.67236 23.322 2.23512 22.3402 2.20003 21.304L1.80003 9.19303C1.79128 8.92781 1.88824 8.66998 2.06959 8.47626C2.25093 8.28253 2.50181 8.16878 2.76703 8.16003C3.03224 8.15128 3.29007 8.24824 3.4838 8.42959C3.67752 8.61094 3.79128 8.86181 3.80003 9.12703L4.20003 21.237C4.21995 21.754 4.43942 22.2431 4.81236 22.6017C5.18529 22.9603 5.68267 23.1604 6.20003 23.16H13.8C14.3181 23.1604 14.816 22.9597 15.189 22.6003C15.5621 22.2409 15.7811 21.7507 15.8 21.233L16.2 9.12703C16.2088 8.86181 16.3225 8.61094 16.5163 8.42959C16.71 8.24824 16.9678 8.15128 17.233 8.16003C17.4982 8.16878 17.7491 8.28253 17.9305 8.47626C18.1118 8.66998 18.2088 8.92781 18.2 9.19303ZM19.523 5.16403C19.523 5.42925 19.4177 5.6836 19.2301 5.87114C19.0426 6.05867 18.7882 6.16403 18.523 6.16403H1.47803C1.21281 6.16403 0.958457 6.05867 0.77092 5.87114C0.583384 5.6836 0.478027 5.42925 0.478027 5.16403C0.478027 4.89881 0.583384 4.64446 0.77092 4.45692C0.958457 4.26939 1.21281 4.16403 1.47803 4.16403H4.57803C4.89488 4.16488 5.20071 4.04782 5.43601 3.83563C5.67131 3.62343 5.81924 3.33128 5.85103 3.01603C5.92482 2.27652 6.27129 1.59096 6.82292 1.09294C7.37456 0.594916 8.09184 0.320098 8.83503 0.322032H11.165C11.9082 0.320098 12.6255 0.594916 13.1771 1.09294C13.7288 1.59096 14.0752 2.27652 14.149 3.01603C14.1808 3.33128 14.3287 3.62343 14.564 3.83563C14.7993 4.04782 15.1052 4.16488 15.422 4.16403H18.522C18.7872 4.16403 19.0416 4.26939 19.2291 4.45692C19.4167 4.64446 19.522 4.89881 19.522 5.16403H19.523ZM7.58703 4.16403H12.415C12.2836 3.86377 12.1977 3.54562 12.16 3.22003C12.1353 2.97354 12.0199 2.74502 11.8362 2.57874C11.6526 2.41247 11.4138 2.32028 11.166 2.32003H8.83603C8.58829 2.32028 8.34947 2.41247 8.16583 2.57874C7.98219 2.74502 7.8668 2.97354 7.84203 3.22003C7.80406 3.54567 7.71778 3.86383 7.58603 4.16403H7.58703ZM8.59403 19.315V10.8C8.59403 10.5348 8.48867 10.2805 8.30113 10.0929C8.1136 9.90539 7.85924 9.80003 7.59403 9.80003C7.32881 9.80003 7.07446 9.90539 6.88692 10.0929C6.69938 10.2805 6.59403 10.5348 6.59403 10.8V19.319C6.59403 19.5842 6.69938 19.8386 6.88692 20.0261C7.07446 20.2137 7.32881 20.319 7.59403 20.319C7.85924 20.319 8.1136 20.2137 8.30113 20.0261C8.48867 19.8386 8.59403 19.5842 8.59403 19.319V19.315ZM13.408 19.315V10.8C13.408 10.5348 13.3027 10.2805 13.1151 10.0929C12.9276 9.90539 12.6732 9.80003 12.408 9.80003C12.1428 9.80003 11.8885 9.90539 11.7009 10.0929C11.5134 10.2805 11.408 10.5348 11.408 10.8V19.319C11.408 19.5842 11.5134 19.8386 11.7009 20.0261C11.8885 20.2137 12.1428 20.319 12.408 20.319C12.6732 20.319 12.9276 20.2137 13.1151 20.0261C13.3027 19.8386 13.408 19.5842 13.408 19.319V19.315Z" fill="#EC1410"/>
</svg>
