<svg width="42" height="42" viewBox="0 0 42 42" fill="none" xmlns="http://www.w3.org/2000/svg">
<path d="M20.5087 10.9214V13.3675C20.5087 13.6103 20.7056 13.8071 20.9483 13.8071C21.1911 13.8071 21.388 13.6103 21.388 13.3675V10.9214C22.2752 10.7206 22.9399 9.92639 22.9399 8.97937C22.9399 7.88123 22.0464 6.98779 20.9483 6.98779C19.8503 6.98779 18.9568 7.88123 18.9568 8.97932C18.9568 9.92634 19.6215 10.7206 20.5087 10.9214ZM20.9483 7.86705C21.5616 7.86705 22.0606 8.36604 22.0606 8.97932C22.0606 9.59244 21.5619 10.0913 20.9489 10.0916C20.9487 10.0916 20.9486 10.0916 20.9483 10.0916C20.9481 10.0916 20.948 10.0916 20.9478 10.0916C20.3347 10.0913 19.8361 9.59244 19.8361 8.97932C19.8361 8.36604 20.3351 7.86705 20.9483 7.86705ZM27.3113 17.8222C27.3858 17.8222 27.4615 17.8032 27.5307 17.7632L29.9453 16.3692C30.3272 16.7824 30.8628 17.0088 31.4104 17.0088C31.748 17.0088 32.09 16.9229 32.4028 16.7423C33.3538 16.1933 33.6808 14.9729 33.1318 14.0218C33.1318 14.0218 33.1318 14.0218 33.1318 14.0218C32.5827 13.0708 31.3624 12.7438 30.4113 13.2929C29.5911 13.7664 29.2357 14.7391 29.5054 15.6079L27.0911 17.0018C26.8809 17.1232 26.8088 17.3921 26.9302 17.6023C27.0116 17.7434 27.1593 17.8222 27.3113 17.8222ZM30.8509 14.0544C31.0256 13.9535 31.2165 13.9056 31.4051 13.9056C31.7898 13.9056 32.1645 14.1051 32.3703 14.4615H32.3702C32.6769 14.9926 32.4942 15.6742 31.9631 15.9809C31.7059 16.1294 31.4062 16.1689 31.1191 16.092C30.8322 16.0151 30.5923 15.831 30.4438 15.5737C30.1371 15.0427 30.3197 14.3611 30.8509 14.0544ZM33.3306 26.5788C33.193 26.065 32.8634 25.6355 32.4028 25.3696C31.9421 25.1037 31.4054 25.0329 30.8916 25.1706C30.5224 25.2695 30.1972 25.4679 29.9446 25.7423L27.5307 24.3487C27.3205 24.2272 27.0515 24.2993 26.9302 24.5096C26.8087 24.7199 26.8808 24.9887 27.0911 25.1101L29.5054 26.504C29.2357 27.3728 29.5911 28.3455 30.4112 28.8191C30.724 28.9997 31.066 29.0855 31.4036 29.0855C32.0924 29.0855 32.7632 28.7284 33.1317 28.0902C33.1317 28.0902 33.1317 28.0902 33.1318 28.0902C33.3977 27.6294 33.4684 27.0927 33.3306 26.5788ZM32.3703 27.6504C32.0637 28.1815 31.382 28.3642 30.8509 28.0576C30.3198 27.7509 30.1372 27.0693 30.4439 26.5382C30.5924 26.2809 30.8322 26.0968 31.1192 26.0199C31.215 25.9942 31.3122 25.9815 31.4089 25.9815C31.6016 25.9815 31.7919 26.0322 31.9632 26.1311C32.4943 26.4377 32.6769 27.1193 32.3703 27.6504ZM21.388 31.1906V28.7445C21.388 28.5017 21.1911 28.3048 20.9483 28.3048C20.7056 28.3048 20.5087 28.5017 20.5087 28.7445V31.1906C19.6215 31.3914 18.9568 32.1856 18.9568 33.1326C18.9568 34.2308 19.8503 35.1242 20.9483 35.1242C22.0464 35.1242 22.9399 34.2308 22.9399 33.1327C22.9399 32.1857 22.2752 31.3914 21.388 31.1906ZM20.9483 34.2449C20.3351 34.2449 19.8361 33.746 19.8361 33.1327C19.8361 32.5194 20.3351 32.0204 20.9483 32.0204C21.5616 32.0204 22.0606 32.5194 22.0606 33.1327C22.0606 33.746 21.5616 34.2449 20.9483 34.2449ZM14.366 24.3487L11.9521 25.7423C11.6994 25.4679 11.3742 25.2695 11.0051 25.1706C10.4912 25.0329 9.95461 25.1037 9.49393 25.3696C8.5429 25.9186 8.21592 27.139 8.76491 28.0901C8.76497 28.0901 8.76497 28.0901 8.76497 28.0901C9.13343 28.7282 9.8042 29.0854 10.493 29.0854C10.8307 29.0854 11.1726 28.9995 11.4855 28.819C12.3056 28.3454 12.6611 27.3727 12.3913 26.5039L14.8056 25.1101C15.0159 24.9887 15.088 24.7198 14.9665 24.5095C14.8451 24.2994 14.5763 24.2272 14.366 24.3487ZM11.0458 28.0575C10.5148 28.3642 9.8331 28.1816 9.52641 27.6504H9.52646C9.21982 27.1193 9.40243 26.4377 9.93356 26.1311C10.1909 25.9825 10.4907 25.9431 10.7775 26.02C11.0645 26.0968 11.3044 26.2809 11.4529 26.5382C11.7596 27.0693 11.577 27.7509 11.0458 28.0575ZM9.49393 16.7424C9.80678 16.923 10.1486 17.0088 10.4863 17.0088C11.0339 17.0088 11.5695 16.7824 11.9515 16.3692L14.366 17.7632C14.4353 17.8033 14.5108 17.8222 14.5854 17.8222C14.7373 17.8222 14.8851 17.7434 14.9666 17.6023C15.088 17.3921 15.0159 17.1232 14.8057 17.0018L12.3914 15.6079C12.6611 14.7392 12.3057 13.7665 11.4855 13.2929C10.5344 12.744 9.31407 13.0708 8.76502 14.0219C8.76502 14.0219 8.76502 14.0219 8.76497 14.0219C8.21592 14.9729 8.5429 16.1933 9.49393 16.7424ZM9.52635 14.4615C9.83305 13.9304 10.5145 13.7477 11.0458 14.0544C11.3031 14.203 11.4871 14.4428 11.564 14.7298C11.6409 15.0168 11.6015 15.3165 11.4529 15.5738C11.1463 16.105 10.4646 16.2875 9.93356 15.9809C9.40238 15.6742 9.21976 14.9926 9.52635 14.4615ZM26.8764 22.0429C27.0462 21.9776 27.1581 21.8145 27.1581 21.6326V20.4793C27.1581 20.2974 27.0461 20.1344 26.8764 20.0691L26.1304 19.7819C26.0018 19.2559 25.795 18.757 25.5133 18.2931L25.838 17.562C25.9118 17.3958 25.8757 17.2013 25.7471 17.0727L24.9316 16.2572C24.803 16.1286 24.6086 16.0925 24.4423 16.1663L23.7108 16.4912C23.247 16.2095 22.7481 16.0026 22.2225 15.8741L21.9353 15.1278C21.87 14.9581 21.7069 14.8461 21.525 14.8461H20.3717C20.1898 14.8461 20.0268 14.9581 19.9614 15.1278L19.6742 15.8741C19.1485 16.0026 18.6497 16.2094 18.1858 16.4912L17.4543 16.1663C17.288 16.0924 17.0936 16.1286 16.965 16.2572L16.1496 17.0728C16.021 17.2013 15.9849 17.3958 16.0587 17.562L16.3835 18.2934C16.1018 18.7571 15.895 19.256 15.7664 19.7818L15.0203 20.0691C14.8506 20.1343 14.7386 20.2974 14.7386 20.4793V21.6326C14.7386 21.8145 14.8506 21.9775 15.0203 22.0429L15.7662 22.3301C15.895 22.8561 16.1017 23.3551 16.3834 23.8188L16.0587 24.55C15.9849 24.7162 16.021 24.9107 16.1496 25.0393L16.9651 25.8548C17.0938 25.9834 17.2882 26.0196 17.4544 25.9457L18.1859 25.6208C18.6496 25.9025 19.1485 26.1093 19.6742 26.2378L19.9614 26.9841C20.0267 27.1538 20.1898 27.2658 20.3717 27.2658H21.525C21.7069 27.2658 21.8699 27.1538 21.9353 26.984L22.2224 26.2381C22.7485 26.1094 23.2474 25.9026 23.7112 25.6209L24.4424 25.9457C24.6086 26.0196 24.8031 25.9834 24.9317 25.8547L25.7471 25.0392C25.8757 24.9106 25.9118 24.7161 25.838 24.5499L25.5131 23.8184C25.7948 23.3547 26.0017 22.8558 26.1302 22.3302L26.8764 22.0429ZM25.3205 21.92C25.2067 22.4997 24.9812 23.0434 24.6505 23.536C24.5663 23.6614 24.5524 23.8214 24.6137 23.9595L24.9119 24.6309L24.5234 25.0195L23.8522 24.7214C23.7141 24.6601 23.554 24.674 23.4286 24.7583C22.9363 25.0889 22.3925 25.3143 21.8123 25.4282C21.664 25.4573 21.541 25.5606 21.4867 25.7018L21.2231 26.3865H20.6736L20.4099 25.7016C20.3556 25.5605 20.2327 25.4573 20.0844 25.4281C19.5046 25.3142 18.9609 25.0888 18.4683 24.7581C18.3429 24.6739 18.183 24.66 18.0449 24.7213L17.3734 25.0195L16.9848 24.6309L17.2829 23.9598C17.3442 23.8216 17.3303 23.6617 17.246 23.5363C16.9154 23.0439 16.69 22.5002 16.576 21.9199C16.5469 21.7716 16.4436 21.6487 16.3025 21.5944L15.6178 21.3307V20.7812L16.3027 20.5175C16.4437 20.4632 16.547 20.3403 16.5762 20.192C16.6901 19.6121 16.9156 19.0683 17.2462 18.5759C17.3304 18.4504 17.3443 18.2905 17.283 18.1524L16.9848 17.481L17.3733 17.0924L18.0448 17.3907C18.1828 17.4519 18.3428 17.438 18.4683 17.3539C18.961 17.0231 19.5046 16.7977 20.0843 16.6839C20.2326 16.6548 20.3556 16.5515 20.4099 16.4105L20.6736 15.7255H21.2231L21.4868 16.4105C21.5411 16.5515 21.6641 16.6548 21.8124 16.6839C22.392 16.7977 22.9357 17.0232 23.4284 17.3538C23.5538 17.4381 23.7137 17.4519 23.8518 17.3907L24.5233 17.0924L24.9119 17.481L24.6138 18.1522C24.5525 18.2903 24.5664 18.4502 24.6506 18.5757C24.9813 19.0681 25.2067 19.6119 25.3207 20.192C25.3498 20.3403 25.4531 20.4633 25.5941 20.5176L26.2789 20.7812V21.3308L25.5939 21.5945C25.4529 21.6488 25.3496 21.7717 25.3205 21.92ZM20.9483 18.0071C19.2671 18.0071 17.8994 19.3749 17.8994 21.056C17.8994 22.7372 19.2672 24.1049 20.9483 24.1049C22.6295 24.1049 23.9972 22.7371 23.9972 21.056C23.9972 19.3748 22.6295 18.0071 20.9483 18.0071ZM20.9483 23.2256C19.7519 23.2256 18.7787 22.2523 18.7787 21.056C18.7787 19.8596 19.752 18.8864 20.9483 18.8864C22.1447 18.8864 23.118 19.8597 23.118 21.056C23.118 22.2524 22.1447 23.2256 20.9483 23.2256Z" fill="#7E10E5" stroke="#7E10E5" stroke-width="0.50244"/>
</svg>
