<svg width="24" height="24" viewBox="0 0 24 24" fill="none" xmlns="http://www.w3.org/2000/svg">
<mask id="mask0_16039_235299" style="mask-type:alpha" maskUnits="userSpaceOnUse" x="0" y="0" width="24" height="24">
<rect width="24" height="24" fill="#D9D9D9"/>
</mask>
<g mask="url(#mask0_16039_235299)">
<path d="M11.5558 17.4808C10.1289 17.3589 8.92958 16.7775 7.95775 15.7365C6.98592 14.6955 6.5 13.45 6.5 12C6.5 10.4722 7.03475 9.17358 8.10425 8.10425C9.17358 7.03475 10.4722 6.5 12 6.5C13.45 6.5 14.6955 6.98433 15.7365 7.953C16.7775 8.9215 17.3589 10.1193 17.4808 11.5463L15.8905 11.075C15.6743 10.175 15.2088 9.4375 14.4938 8.8625C13.7789 8.2875 12.9477 8 12 8C10.9 8 9.95833 8.39167 9.175 9.175C8.39167 9.95833 8 10.9 8 12C8 12.95 8.28908 13.7833 8.86725 14.5C9.44542 15.2167 10.1813 15.6833 11.075 15.9L11.5558 17.4808ZM12.7558 21.4595C12.6298 21.4865 12.5038 21.5 12.378 21.5H12C10.6858 21.5 9.45083 21.2507 8.295 20.752C7.13917 20.2533 6.13375 19.5766 5.27875 18.7218C4.42375 17.8669 3.74692 16.8617 3.24825 15.706C2.74942 14.5503 2.5 13.3156 2.5 12.0017C2.5 10.6877 2.74933 9.45267 3.248 8.2965C3.74667 7.14033 4.42342 6.13467 5.27825 5.2795C6.13308 4.42433 7.13833 3.74725 8.294 3.24825C9.44967 2.74942 10.6844 2.5 11.9983 2.5C13.3123 2.5 14.5473 2.74942 15.7035 3.24825C16.8597 3.74692 17.8653 4.42375 18.7205 5.27875C19.5757 6.13375 20.2528 7.13917 20.7518 8.295C21.2506 9.45083 21.5 10.6858 21.5 12V12.373C21.5 12.4973 21.4865 12.6217 21.4595 12.7463L20 12.3V12C20 9.76667 19.225 7.875 17.675 6.325C16.125 4.775 14.2333 4 12 4C9.76667 4 7.875 4.775 6.325 6.325C4.775 7.875 4 9.76667 4 12C4 14.2333 4.775 16.125 6.325 17.675C7.875 19.225 9.76667 20 12 20H12.3L12.7558 21.4595ZM20.1402 21.6443L15.6058 17.1L14.5193 20.3845L12 12L20.3845 14.5192L17.1 15.6058L21.6443 20.1402L20.1402 21.6443Z" fill="#008080"/>
</g>
</svg>
