<svg width="18" height="18" viewBox="0 0 18 18" fill="none" xmlns="http://www.w3.org/2000/svg">
<g clip-path="url(#clip0_14908_76490)">
<path d="M9 1.5C13.1355 1.5 16.5 4.8645 16.5 9C16.5 13.1355 13.1355 16.5 9 16.5C4.8645 16.5 1.5 13.1355 1.5 9C1.5 4.8645 4.8645 1.5 9 1.5ZM9 0C4.02975 0 0 4.02975 0 9C0 13.9703 4.02975 18 9 18C13.9703 18 18 13.9703 18 9C18 4.02975 13.9703 0 9 0ZM8.25 4.5H9.75V10.5H8.25V4.5ZM9 13.6875C8.4825 13.6875 8.0625 13.2675 8.0625 12.75C8.0625 12.2325 8.4825 11.8125 9 11.8125C9.5175 11.8125 9.9375 12.2325 9.9375 12.75C9.9375 13.2675 9.5175 13.6875 9 13.6875Z" fill="#EC1410"/>
</g>
<defs>
<clipPath id="clip0_14908_76490">
<rect width="18" height="18" fill="white"/>
</clipPath>
</defs>
</svg>
